<svg width="191" height="49" viewBox="0 0 191 49" fill="none" xmlns="http://www.w3.org/2000/svg">
<path d="M5.6333 10.6069H7.00293C8.28304 10.6069 9.24089 10.3563 9.87646 9.85498C10.512 9.34473 10.8298 8.6062 10.8298 7.6394C10.8298 6.66366 10.5613 5.94303 10.0242 5.47754C9.49601 5.01204 8.66349 4.7793 7.52661 4.7793H5.6333V10.6069ZM15.0327 7.4917C15.0327 9.60433 14.3703 11.2201 13.0454 12.3391C11.7295 13.4581 9.85409 14.0176 7.41919 14.0176H5.6333V21H1.4707V1.36865H7.74146C10.1226 1.36865 11.9309 1.88338 13.1663 2.91284C14.4106 3.93335 15.0327 5.45964 15.0327 7.4917Z" fill="white"/>
<path d="M21.6794 13.467C21.6794 14.953 21.9211 16.0765 22.4045 16.8374C22.8969 17.5983 23.6936 17.9788 24.7947 17.9788C25.8868 17.9788 26.6701 17.6028 27.1445 16.8508C27.6279 16.0899 27.8696 14.962 27.8696 13.467C27.8696 11.981 27.6279 10.8665 27.1445 10.1235C26.6611 9.38053 25.8689 9.00903 24.7678 9.00903C23.6757 9.00903 22.8879 9.38053 22.4045 10.1235C21.9211 10.8576 21.6794 11.9721 21.6794 13.467ZM32.0591 13.467C32.0591 15.9109 31.4146 17.8221 30.1255 19.2007C28.8364 20.5793 27.0416 21.2686 24.741 21.2686C23.2997 21.2686 22.0286 20.9552 20.9275 20.3286C19.8264 19.693 18.9805 18.7844 18.3896 17.6028C17.7988 16.4211 17.5034 15.0426 17.5034 13.467C17.5034 11.0142 18.1435 9.1075 19.4236 7.74683C20.7037 6.38615 22.503 5.70581 24.8215 5.70581C26.2628 5.70581 27.5339 6.01912 28.635 6.64575C29.7361 7.27238 30.582 8.17204 31.1729 9.34473C31.7637 10.5174 32.0591 11.8915 32.0591 13.467Z" fill="white"/>
<path d="M43.8218 5.70581C44.3768 5.70581 44.8378 5.74609 45.2048 5.82666L44.896 9.66699C44.5648 9.57747 44.1619 9.53271 43.6875 9.53271C42.3805 9.53271 41.36 9.86841 40.626 10.5398C39.9009 11.2112 39.5383 12.1511 39.5383 13.3596V21H35.4429V5.98779H38.5447L39.1489 8.51221H39.3503C39.8158 7.67074 40.4425 6.99487 41.2302 6.48462C42.0269 5.96541 42.8908 5.70581 43.8218 5.70581Z" fill="white"/>
<path d="M54.2551 18.0056C54.9713 18.0056 55.8306 17.849 56.8333 17.5356V20.5837C55.8127 21.0403 54.5595 21.2686 53.0735 21.2686C51.4353 21.2686 50.2402 20.8568 49.4883 20.0332C48.7453 19.2007 48.3738 17.9564 48.3738 16.3003V9.06274H46.4133V7.33057L48.6692 5.96094L49.8508 2.79199H52.4692V5.98779H56.6721V9.06274H52.4692V16.3003C52.4692 16.8822 52.6304 17.3118 52.9526 17.5894C53.2839 17.8669 53.718 18.0056 54.2551 18.0056Z" fill="white"/>
<path d="M63.9768 21H59.8813V0.106445H63.9768V21Z" fill="white"/>
<path d="M77.8208 21L77.0286 18.959H76.9211C76.2319 19.8273 75.5202 20.4316 74.7861 20.7717C74.061 21.1029 73.1121 21.2686 71.9395 21.2686C70.4982 21.2686 69.3613 20.8568 68.5288 20.0332C67.7052 19.2096 67.2935 18.0369 67.2935 16.5151C67.2935 14.9217 67.8485 13.749 68.9585 12.9971C70.0775 12.2362 71.7604 11.8154 74.0073 11.7349L76.6123 11.6543V10.9963C76.6123 9.47453 75.8335 8.71362 74.2759 8.71362C73.0763 8.71362 71.6664 9.07617 70.0461 9.80127L68.6899 7.03516C70.4176 6.13102 72.3333 5.67896 74.437 5.67896C76.4512 5.67896 77.9954 6.11759 79.0696 6.99487C80.1438 7.87215 80.6809 9.20597 80.6809 10.9963V21H77.8208ZM76.6123 14.0444L75.0278 14.0981C73.8372 14.134 72.951 14.3488 72.3691 14.7427C71.7873 15.1366 71.4963 15.7363 71.4963 16.542C71.4963 17.6968 72.1588 18.2742 73.4836 18.2742C74.4325 18.2742 75.189 18.0011 75.7529 17.4551C76.3258 16.909 76.6123 16.1839 76.6123 15.2798V14.0444Z" fill="white"/>
<path d="M98.7681 21H94.6726V12.2317C94.6726 11.1485 94.4801 10.3384 94.0952 9.80127C93.7103 9.25521 93.0971 8.98218 92.2556 8.98218C91.1098 8.98218 90.2817 9.36711 89.7715 10.137C89.2612 10.8979 89.0061 12.1646 89.0061 13.937V21H84.9106V5.98779H88.0393L88.5898 7.90796H88.8181C89.2747 7.18286 89.9013 6.6368 90.698 6.26978C91.5037 5.8938 92.4167 5.70581 93.4373 5.70581C95.1829 5.70581 96.5077 6.18026 97.4119 7.12915C98.316 8.06909 98.7681 9.42977 98.7681 11.2112V21Z" fill="white"/>
<path d="M107.738 21.2686C105.974 21.2686 104.587 20.5837 103.575 19.2141C102.573 17.8445 102.071 15.9467 102.071 13.5208C102.071 11.059 102.582 9.14331 103.602 7.77368C104.632 6.3951 106.046 5.70581 107.845 5.70581C109.734 5.70581 111.175 6.43986 112.169 7.90796H112.303C112.097 6.78898 111.994 5.79085 111.994 4.91357V0.106445H116.103V21H112.961L112.169 19.053H111.994C111.063 20.53 109.645 21.2686 107.738 21.2686ZM109.175 18.0056C110.222 18.0056 110.987 17.7013 111.471 17.0925C111.963 16.4838 112.232 15.4499 112.276 13.9907V13.5476C112.276 11.9363 112.026 10.7815 111.524 10.0833C111.032 9.38501 110.226 9.03589 109.107 9.03589C108.194 9.03589 107.483 9.42529 106.972 10.2041C106.471 10.974 106.22 12.0974 106.22 13.5745C106.22 15.0515 106.476 16.1615 106.986 16.9045C107.496 17.6386 108.226 18.0056 109.175 18.0056Z" fill="white"/>
<path d="M119.809 19.0798C119.809 18.3279 120.011 17.7594 120.414 17.3745C120.816 16.9896 121.403 16.7971 122.173 16.7971C122.916 16.7971 123.489 16.9941 123.891 17.3879C124.303 17.7818 124.509 18.3458 124.509 19.0798C124.509 19.787 124.303 20.3465 123.891 20.7583C123.48 21.1611 122.907 21.3625 122.173 21.3625C121.421 21.3625 120.839 21.1656 120.427 20.7717C120.015 20.3689 119.809 19.8049 119.809 19.0798Z" fill="white"/>
<path d="M141.294 5.98779V8.06909L138.944 8.67334C139.374 9.34473 139.588 10.0967 139.588 10.9292C139.588 12.5405 139.024 13.7983 137.896 14.7024C136.778 15.5976 135.22 16.0452 133.224 16.0452L132.485 16.0049L131.881 15.9377C131.46 16.26 131.25 16.6181 131.25 17.012C131.25 17.6028 132.002 17.8982 133.506 17.8982H136.057C137.704 17.8982 138.957 18.2518 139.817 18.959C140.685 19.6662 141.119 20.7046 141.119 22.0742C141.119 23.8288 140.385 25.1895 138.917 26.1562C137.458 27.123 135.359 27.6064 132.619 27.6064C130.525 27.6064 128.922 27.2394 127.812 26.5054C126.711 25.7803 126.161 24.7598 126.161 23.4438C126.161 22.5397 126.443 21.7833 127.007 21.1746C127.571 20.5658 128.399 20.1317 129.491 19.8721C129.07 19.693 128.703 19.4021 128.39 18.9993C128.076 18.5875 127.92 18.1533 127.92 17.6968C127.92 17.1239 128.085 16.6494 128.417 16.2734C128.748 15.8885 129.227 15.5125 129.853 15.1455C129.066 14.8053 128.439 14.2593 127.973 13.5073C127.517 12.7554 127.289 11.8691 127.289 10.8486C127.289 9.21045 127.821 7.94377 128.886 7.04858C129.952 6.1534 131.474 5.70581 133.452 5.70581C133.873 5.70581 134.369 5.74609 134.942 5.82666C135.524 5.89827 135.896 5.95199 136.057 5.98779H141.294ZM129.706 23.1216C129.706 23.6855 129.974 24.1287 130.511 24.4509C131.057 24.7732 131.818 24.9343 132.794 24.9343C134.262 24.9343 135.412 24.7329 136.245 24.3301C137.077 23.9272 137.494 23.3767 137.494 22.6785C137.494 22.1145 137.247 21.7251 136.755 21.5103C136.263 21.2954 135.502 21.188 134.472 21.188H132.351C131.599 21.188 130.968 21.3625 130.458 21.7117C129.956 22.0697 129.706 22.5397 129.706 23.1216ZM131.196 10.9023C131.196 11.717 131.38 12.3615 131.747 12.8359C132.123 13.3104 132.691 13.5476 133.452 13.5476C134.222 13.5476 134.786 13.3104 135.144 12.8359C135.502 12.3615 135.681 11.717 135.681 10.9023C135.681 9.09408 134.938 8.18994 133.452 8.18994C131.948 8.18994 131.196 9.09408 131.196 10.9023Z" fill="white"/>
<path d="M147.041 13.467C147.041 14.953 147.282 16.0765 147.766 16.8374C148.258 17.5983 149.055 17.9788 150.156 17.9788C151.248 17.9788 152.031 17.6028 152.506 16.8508C152.989 16.0899 153.231 14.962 153.231 13.467C153.231 11.981 152.989 10.8665 152.506 10.1235C152.022 9.38053 151.23 9.00903 150.129 9.00903C149.037 9.00903 148.249 9.38053 147.766 10.1235C147.282 10.8576 147.041 11.9721 147.041 13.467ZM157.42 13.467C157.42 15.9109 156.776 17.8221 155.487 19.2007C154.198 20.5793 152.403 21.2686 150.102 21.2686C148.661 21.2686 147.39 20.9552 146.289 20.3286C145.188 19.693 144.342 18.7844 143.751 17.6028C143.16 16.4211 142.865 15.0426 142.865 13.467C142.865 11.0142 143.505 9.1075 144.785 7.74683C146.065 6.38615 147.864 5.70581 150.183 5.70581C151.624 5.70581 152.895 6.01912 153.996 6.64575C155.097 7.27238 155.943 8.17204 156.534 9.34473C157.125 10.5174 157.42 11.8915 157.42 13.467Z" fill="white"/>
<path d="M164.376 21L158.656 5.98779H162.939L165.84 14.5413C166.162 15.6244 166.363 16.6494 166.444 17.6162H166.524C166.569 16.7568 166.771 15.7319 167.129 14.5413L170.016 5.98779H174.299L168.579 21H164.376Z" fill="white"/>
<path d="M5.86475 32.9517C4.53109 32.9517 3.47689 33.3971 2.70215 34.2881C1.93294 35.1735 1.54834 36.3882 1.54834 37.9321C1.54834 39.5203 1.91911 40.7489 2.66064 41.6177C3.40771 42.481 4.47021 42.9126 5.84814 42.9126C6.69482 42.9126 7.66048 42.7604 8.74512 42.4561V43.6929C7.90397 44.0083 6.86637 44.166 5.63232 44.166C3.84489 44.166 2.46419 43.6237 1.49023 42.5391C0.52181 41.4544 0.0375977 39.9132 0.0375977 37.9155C0.0375977 36.6649 0.27002 35.5692 0.734863 34.6284C1.20524 33.6877 1.88037 32.9627 2.76025 32.4536C3.64567 31.9445 4.68604 31.6899 5.88135 31.6899C7.15413 31.6899 8.26644 31.9224 9.21826 32.3872L8.62061 33.5991C7.70199 33.1675 6.78337 32.9517 5.86475 32.9517Z" fill="white"/>
<path d="M12.5635 44H11.1855V34.9023H12.5635V44ZM11.0693 32.437C11.0693 32.1216 11.1468 31.8919 11.3018 31.748C11.4567 31.5986 11.6504 31.5239 11.8828 31.5239C12.1042 31.5239 12.2951 31.5986 12.4556 31.748C12.616 31.8975 12.6963 32.1271 12.6963 32.437C12.6963 32.7469 12.616 32.9793 12.4556 33.1343C12.2951 33.2837 12.1042 33.3584 11.8828 33.3584C11.6504 33.3584 11.4567 33.2837 11.3018 33.1343C11.1468 32.9793 11.0693 32.7469 11.0693 32.437Z" fill="white"/>
<path d="M18.4238 43.0288C18.6673 43.0288 18.9025 43.0122 19.1294 42.979C19.3563 42.9403 19.5361 42.9015 19.6689 42.8628V43.917C19.5195 43.9889 19.2982 44.047 19.0049 44.0913C18.7171 44.1411 18.457 44.166 18.2246 44.166C16.4648 44.166 15.585 43.2391 15.585 41.3853V35.9731H14.2817V35.3091L15.585 34.7363L16.166 32.7939H16.9629V34.9023H19.6025V35.9731H16.9629V41.3271C16.9629 41.875 17.0929 42.2956 17.353 42.5889C17.6131 42.8822 17.9701 43.0288 18.4238 43.0288Z" fill="white"/>
<path d="M20.0508 34.9023H21.5283L23.5205 40.0903C23.9577 41.2746 24.2288 42.1296 24.334 42.6553H24.4004C24.4723 42.373 24.6217 41.8916 24.8486 41.2109C25.0811 40.5247 25.8337 38.4219 27.1064 34.9023H28.584L24.6743 45.2617C24.2869 46.2855 23.8332 47.0104 23.313 47.4365C22.7983 47.8682 22.1647 48.084 21.4121 48.084C20.9915 48.084 20.5765 48.0369 20.167 47.9429V46.8389C20.4714 46.9053 20.8117 46.9385 21.188 46.9385C22.1343 46.9385 22.8094 46.4072 23.2134 45.3447L23.7197 44.0498L20.0508 34.9023Z" fill="white"/>
<path d="M42.3301 39.4429C42.3301 40.9259 41.9565 42.0853 41.2095 42.9209C40.4624 43.751 39.4303 44.166 38.1133 44.166C37.2998 44.166 36.5776 43.9751 35.9468 43.5933C35.3159 43.2114 34.8289 42.6636 34.4858 41.9497C34.1427 41.2358 33.9712 40.4002 33.9712 39.4429C33.9712 37.9598 34.342 36.806 35.0835 35.9814C35.825 35.1514 36.8543 34.7363 38.1714 34.7363C39.4442 34.7363 40.4541 35.1597 41.2012 36.0063C41.9538 36.853 42.3301 37.9985 42.3301 39.4429ZM35.3989 39.4429C35.3989 40.605 35.6313 41.4904 36.0962 42.0991C36.561 42.7078 37.2445 43.0122 38.1465 43.0122C39.0485 43.0122 39.7319 42.7106 40.1968 42.1074C40.6672 41.4987 40.9023 40.6105 40.9023 39.4429C40.9023 38.2863 40.6672 37.4092 40.1968 36.8115C39.7319 36.2083 39.043 35.9067 38.1299 35.9067C37.2279 35.9067 36.5472 36.2028 36.0879 36.7949C35.6286 37.387 35.3989 38.2697 35.3989 39.4429Z" fill="white"/>
<path d="M48.8545 35.9731H46.5386V44H45.1606V35.9731H43.5337V35.3506L45.1606 34.8525V34.3462C45.1606 32.1105 46.1374 30.9927 48.0908 30.9927C48.5723 30.9927 49.1367 31.0895 49.7842 31.2832L49.4272 32.3872C48.896 32.2157 48.4422 32.1299 48.0659 32.1299C47.5457 32.1299 47.1611 32.3042 46.9121 32.6528C46.6631 32.9959 46.5386 33.5493 46.5386 34.313V34.9023H48.8545V35.9731Z" fill="white"/>
<path d="M62.833 35.4004C62.833 36.6289 62.4124 37.5752 61.5713 38.2393C60.7357 38.8978 59.5376 39.2271 57.9771 39.2271H56.5493V44H55.1382V31.8643H58.2842C61.3167 31.8643 62.833 33.043 62.833 35.4004ZM56.5493 38.0151H57.8193C59.07 38.0151 59.9748 37.8132 60.5337 37.4092C61.0926 37.0052 61.3721 36.3577 61.3721 35.4668C61.3721 34.6644 61.1092 34.0667 60.5835 33.6738C60.0578 33.2809 59.2388 33.0845 58.1265 33.0845H56.5493V38.0151Z" fill="white"/>
<path d="M73.0264 39.4429C73.0264 40.9259 72.6528 42.0853 71.9058 42.9209C71.1587 43.751 70.1266 44.166 68.8096 44.166C67.9961 44.166 67.2739 43.9751 66.6431 43.5933C66.0122 43.2114 65.5252 42.6636 65.1821 41.9497C64.839 41.2358 64.6675 40.4002 64.6675 39.4429C64.6675 37.9598 65.0382 36.806 65.7798 35.9814C66.5213 35.1514 67.5506 34.7363 68.8677 34.7363C70.1405 34.7363 71.1504 35.1597 71.8975 36.0063C72.6501 36.853 73.0264 37.9985 73.0264 39.4429ZM66.0952 39.4429C66.0952 40.605 66.3276 41.4904 66.7925 42.0991C67.2573 42.7078 67.9408 43.0122 68.8428 43.0122C69.7448 43.0122 70.4282 42.7106 70.8931 42.1074C71.3634 41.4987 71.5986 40.6105 71.5986 39.4429C71.5986 38.2863 71.3634 37.4092 70.8931 36.8115C70.4282 36.2083 69.7393 35.9067 68.8262 35.9067C67.9242 35.9067 67.2435 36.2028 66.7842 36.7949C66.3249 37.387 66.0952 38.2697 66.0952 39.4429Z" fill="white"/>
<path d="M79.6006 34.7363C80.0046 34.7363 80.367 34.7695 80.688 34.8359L80.4971 36.1143C80.1208 36.0312 79.7887 35.9897 79.501 35.9897C78.765 35.9897 78.1341 36.2886 77.6084 36.8862C77.0882 37.4839 76.8281 38.2282 76.8281 39.1191V44H75.4502V34.9023H76.5874L76.7451 36.5874H76.8115C77.1491 35.9953 77.5558 35.5387 78.0317 35.2178C78.5076 34.8968 79.0306 34.7363 79.6006 34.7363Z" fill="white"/>
<path d="M85.3281 43.0288C85.5716 43.0288 85.8068 43.0122 86.0337 42.979C86.2606 42.9403 86.4404 42.9015 86.5732 42.8628V43.917C86.4238 43.9889 86.2025 44.047 85.9092 44.0913C85.6214 44.1411 85.3613 44.166 85.1289 44.166C83.3691 44.166 82.4893 43.2391 82.4893 41.3853V35.9731H81.186V35.3091L82.4893 34.7363L83.0703 32.7939H83.8672V34.9023H86.5068V35.9731H83.8672V41.3271C83.8672 41.875 83.9972 42.2956 84.2573 42.5889C84.5174 42.8822 84.8743 43.0288 85.3281 43.0288Z" fill="white"/>
<path d="M89.7773 44H88.3994V31.084H89.7773V44Z" fill="white"/>
<path d="M98.2939 44L98.02 42.7051H97.9536C97.4998 43.2751 97.0461 43.6624 96.5923 43.8672C96.144 44.0664 95.5824 44.166 94.9072 44.166C94.0052 44.166 93.2969 43.9336 92.7822 43.4688C92.2731 43.0039 92.0186 42.3426 92.0186 41.4849C92.0186 39.6476 93.4878 38.6847 96.4263 38.5962L97.9702 38.5464V37.9819C97.9702 37.2681 97.8153 36.7424 97.5054 36.4048C97.201 36.0617 96.7113 35.8901 96.0361 35.8901C95.278 35.8901 94.4202 36.1226 93.4629 36.5874L93.0396 35.5332C93.4878 35.2897 93.9775 35.0988 94.5088 34.9604C95.0456 34.8221 95.5824 34.7529 96.1191 34.7529C97.2038 34.7529 98.0062 34.9937 98.5264 35.4751C99.0521 35.9565 99.3149 36.7285 99.3149 37.791V44H98.2939ZM95.1812 43.0288C96.0389 43.0288 96.7113 42.7936 97.1982 42.3232C97.6908 41.8529 97.937 41.1943 97.937 40.3477V39.5259L96.5591 39.584C95.4634 39.6227 94.672 39.7943 94.1851 40.0986C93.7036 40.3975 93.4629 40.8651 93.4629 41.5015C93.4629 41.9995 93.6123 42.3786 93.9111 42.6387C94.2155 42.8988 94.6388 43.0288 95.1812 43.0288Z" fill="white"/>
<path d="M108.388 44V38.1147C108.388 37.3732 108.219 36.8198 107.881 36.4546C107.544 36.0894 107.015 35.9067 106.296 35.9067C105.344 35.9067 104.647 36.1641 104.204 36.6787C103.761 37.1934 103.54 38.0428 103.54 39.2271V44H102.162V34.9023H103.283L103.507 36.1475H103.573C103.855 35.6992 104.251 35.3534 104.76 35.1099C105.269 34.8608 105.837 34.7363 106.462 34.7363C107.558 34.7363 108.382 35.002 108.936 35.5332C109.489 36.0589 109.766 36.9028 109.766 38.0649V44H108.388Z" fill="white"/>
<path d="M118.797 42.7798H118.722C118.086 43.7039 117.134 44.166 115.867 44.166C114.677 44.166 113.75 43.7593 113.086 42.9458C112.427 42.1323 112.098 40.9757 112.098 39.4761C112.098 37.9764 112.43 36.8115 113.094 35.9814C113.758 35.1514 114.682 34.7363 115.867 34.7363C117.101 34.7363 118.047 35.1846 118.706 36.0811H118.813L118.755 35.4253L118.722 34.7861V31.084H120.1V44H118.979L118.797 42.7798ZM116.041 43.0122C116.982 43.0122 117.662 42.7576 118.083 42.2485C118.509 41.7339 118.722 40.9066 118.722 39.7666V39.4761C118.722 38.1867 118.506 37.2681 118.075 36.7202C117.649 36.1668 116.965 35.8901 116.024 35.8901C115.216 35.8901 114.597 36.2056 114.165 36.8364C113.739 37.4618 113.526 38.3472 113.526 39.4927C113.526 40.6548 113.739 41.5319 114.165 42.124C114.591 42.7161 115.216 43.0122 116.041 43.0122Z" fill="white"/>
<path d="M126.666 40.0737V38.812H142.305V40.0737H126.666Z" fill="white"/>
<path d="M154.457 44L154.183 42.7051H154.117C153.663 43.2751 153.209 43.6624 152.755 43.8672C152.307 44.0664 151.745 44.166 151.07 44.166C150.168 44.166 149.46 43.9336 148.945 43.4688C148.436 43.0039 148.182 42.3426 148.182 41.4849C148.182 39.6476 149.651 38.6847 152.589 38.5962L154.133 38.5464V37.9819C154.133 37.2681 153.978 36.7424 153.668 36.4048C153.364 36.0617 152.874 35.8901 152.199 35.8901C151.441 35.8901 150.583 36.1226 149.626 36.5874L149.203 35.5332C149.651 35.2897 150.141 35.0988 150.672 34.9604C151.209 34.8221 151.745 34.7529 152.282 34.7529C153.367 34.7529 154.169 34.9937 154.689 35.4751C155.215 35.9565 155.478 36.7285 155.478 37.791V44H154.457ZM151.344 43.0288C152.202 43.0288 152.874 42.7936 153.361 42.3232C153.854 41.8529 154.1 41.1943 154.1 40.3477V39.5259L152.722 39.584C151.626 39.6227 150.835 39.7943 150.348 40.0986C149.867 40.3975 149.626 40.8651 149.626 41.5015C149.626 41.9995 149.775 42.3786 150.074 42.6387C150.379 42.8988 150.802 43.0288 151.344 43.0288Z" fill="white"/>
<path d="M159.703 44H158.325V31.084H159.703V44Z" fill="white"/>
<path d="M166.858 44.166C166.266 44.166 165.724 44.0581 165.231 43.8423C164.744 43.6209 164.335 43.2834 164.003 42.8296H163.903C163.97 43.3608 164.003 43.8644 164.003 44.3403V48.084H162.625V34.9023H163.746L163.937 36.1475H164.003C164.357 35.6494 164.769 35.2897 165.24 35.0684C165.71 34.847 166.25 34.7363 166.858 34.7363C168.065 34.7363 168.994 35.1486 169.647 35.9731C170.306 36.7977 170.635 37.9543 170.635 39.4429C170.635 40.937 170.3 42.0991 169.631 42.9292C168.967 43.7537 168.043 44.166 166.858 44.166ZM166.659 35.9067C165.729 35.9067 165.057 36.1641 164.642 36.6787C164.227 37.1934 164.014 38.0124 164.003 39.1357V39.4429C164.003 40.7212 164.216 41.637 164.642 42.1904C165.068 42.7383 165.752 43.0122 166.692 43.0122C167.478 43.0122 168.092 42.694 168.535 42.0576C168.983 41.4212 169.208 40.5441 169.208 39.4263C169.208 38.2918 168.983 37.423 168.535 36.8198C168.092 36.2111 167.467 35.9067 166.659 35.9067Z" fill="white"/>
<path d="M179.276 44V38.1147C179.276 37.3732 179.108 36.8198 178.77 36.4546C178.432 36.0894 177.904 35.9067 177.185 35.9067C176.227 35.9067 175.527 36.1668 175.084 36.687C174.647 37.2072 174.429 38.0594 174.429 39.2437V44H173.051V31.084H174.429V34.9937C174.429 35.464 174.407 35.8542 174.362 36.1641H174.445C174.716 35.7269 175.101 35.3838 175.599 35.1348C176.103 34.8802 176.675 34.7529 177.317 34.7529C178.43 34.7529 179.263 35.0186 179.816 35.5498C180.375 36.0755 180.654 36.9139 180.654 38.0649V44H179.276Z" fill="white"/>
<path d="M189.088 44L188.814 42.7051H188.748C188.294 43.2751 187.84 43.6624 187.386 43.8672C186.938 44.0664 186.376 44.166 185.701 44.166C184.799 44.166 184.091 43.9336 183.576 43.4688C183.067 43.0039 182.812 42.3426 182.812 41.4849C182.812 39.6476 184.282 38.6847 187.22 38.5962L188.764 38.5464V37.9819C188.764 37.2681 188.609 36.7424 188.299 36.4048C187.995 36.0617 187.505 35.8901 186.83 35.8901C186.072 35.8901 185.214 36.1226 184.257 36.5874L183.833 35.5332C184.282 35.2897 184.771 35.0988 185.303 34.9604C185.84 34.8221 186.376 34.7529 186.913 34.7529C187.998 34.7529 188.8 34.9937 189.32 35.4751C189.846 35.9565 190.109 36.7285 190.109 37.791V44H189.088ZM185.975 43.0288C186.833 43.0288 187.505 42.7936 187.992 42.3232C188.485 41.8529 188.731 41.1943 188.731 40.3477V39.5259L187.353 39.584C186.257 39.6227 185.466 39.7943 184.979 40.0986C184.498 40.3975 184.257 40.8651 184.257 41.5015C184.257 41.9995 184.406 42.3786 184.705 42.6387C185.009 42.8988 185.433 43.0288 185.975 43.0288Z" fill="white"/>
</svg>
