<?xml version="1.0" encoding="UTF-8" standalone="no"?>
<svg width="164px" height="22px" viewBox="0 0 164 22" version="1.1" xmlns="http://www.w3.org/2000/svg" xmlns:xlink="http://www.w3.org/1999/xlink">
    <!-- Generator: Sketch 40.3 (33839) - http://www.bohemiancoding.com/sketch -->
    <title>WaterWorks</title>
    <desc>Created with Sketch.</desc>
    <defs></defs>
    <g id="Base" stroke="none" stroke-width="1" fill="none" fill-rule="evenodd">
        <g id="Your-Logo-Here" transform="translate(0.000000, -7.000000)" fill="#FFFFFF">
            <path d="M18.8671875,28 L15.2304688,14.4511719 L11.5390625,28 L6.38476562,28 L-0.02734375,8.39453125 L5.29101562,8.39453125 L9.1328125,22.8183594 L12.8789062,8.39453125 L17.7460938,8.39453125 L21.5878906,22.8183594 L25.3613281,8.39453125 L30.4609375,8.39453125 L23.9941406,28 L18.8671875,28 Z M41.4246093,14.1298828 C42.5730525,15.0914762 43.15638,16.4290279 43.1746093,18.1425781 L43.1746093,28 L38.4441406,28 L38.4441406,26.2636719 C37.9610652,26.9016959 37.327608,27.3870426 36.5437499,27.7197266 C35.7598918,28.0524105 34.8529999,28.21875 33.8230468,28.21875 C32.2371014,28.21875 30.9770228,27.7812544 30.0427734,26.90625 C29.1085239,26.0312456 28.6414062,24.8919341 28.6414062,23.4882812 C28.6414062,22.0481699 29.1404246,20.9316446 30.1384765,20.1386719 C31.1365284,19.3456992 32.5697823,18.9401043 34.4382812,18.921875 L38.4167968,18.921875 L38.4167968,18.703125 C38.4167968,17.9557254 38.1707055,17.3723979 37.6785156,16.953125 C37.1863256,16.5338521 36.452609,16.3242188 35.4773437,16.3242188 C34.8393197,16.3242188 34.123832,16.431314 33.3308593,16.6455078 C32.5378866,16.8597016 31.749483,17.1718729 30.9656249,17.5820312 L29.5984374,14.3964844 C30.8289123,13.8222628 32.0001246,13.3938816 33.1121093,13.1113281 C34.224094,12.8287746 35.3861918,12.6875 36.5984374,12.6875 C38.6674582,12.6875 40.2761661,13.1682895 41.4246093,14.1298828 L41.4246093,14.1298828 Z M37.3298827,24.3769531 C37.9086617,23.9941387 38.2709627,23.4928416 38.4167968,22.8730469 L38.4167968,21.5332031 L35.3679687,21.5332031 C34.6387984,21.5332031 34.0919288,21.6630846 33.7273437,21.9228516 C33.3627585,22.1826185 33.1804687,22.5950493 33.1804687,23.1601562 C33.1804687,23.7161486 33.3673158,24.1536442 33.7410156,24.4726562 C34.1147153,24.7916683 34.6387986,24.9511719 35.3132812,24.9511719 C36.07891,24.9511719 36.7511038,24.7597675 37.3298827,24.3769531 L37.3298827,24.3769531 Z M53.1812499,27.9384766 C52.4703088,28.1253265 51.7502639,28.21875 51.0210936,28.21875 C49.5262945,28.21875 48.3186243,27.8040406 47.3980467,26.9746094 C46.4774692,26.1451781 46.0171874,24.9648514 46.0171874,23.4335938 L46.0171874,16.7753906 L43.9117186,16.7753906 L43.9117186,13.6035156 L46.0171874,13.6035156 L46.0171874,9.40625 L50.8296874,9.40625 L50.8296874,13.5761719 L54.7808592,13.5761719 L54.7808592,16.7753906 L50.8296874,16.7753906 L50.8296874,22.6816406 C50.8296874,23.7845107 51.2762975,24.3359375 52.1695311,24.3359375 C52.689065,24.3359375 53.3316367,24.1673194 54.0972655,23.8300781 L55.0542967,27.1933594 C54.5165336,27.5032568 53.8921909,27.7516267 53.1812499,27.9384766 L53.1812499,27.9384766 Z M68.376367,14.8818359 C69.6934308,16.3082754 70.3519529,18.292956 70.3519529,20.8359375 C70.3519529,21.2460958 70.3428384,21.5514313 70.3246092,21.7519531 L59.7152342,21.7519531 C59.9613291,22.6451868 60.3897103,23.3356095 61.0003904,23.8232422 C61.6110705,24.3108748 62.3675734,24.5546875 63.2699217,24.5546875 C63.9444042,24.5546875 64.5869759,24.424806 65.197656,24.1650391 C65.8083362,23.9052721 66.3688774,23.5201848 66.8792967,23.0097656 L69.4222654,25.5117188 C68.6384073,26.3684939 67.6859429,27.0247373 66.5648435,27.4804688 C65.4437442,27.9362002 64.2041732,28.1640625 62.8460935,28.1640625 C61.2236896,28.1640625 59.8109433,27.8473339 58.6078123,27.2138672 C57.4046813,26.5804005 56.4750031,25.6849016 55.8187498,24.5273438 C55.1624965,23.3697859 54.8343748,22.0253983 54.8343748,20.4941406 C54.8343748,18.962883 55.1670538,17.6093809 55.8324217,16.4335938 C56.4977896,15.2578066 57.4229105,14.348636 58.6078123,13.7060547 C59.792714,13.0634733 61.1598879,12.7421875 62.7093748,12.7421875 C65.1703246,12.7421875 67.0593031,13.4553965 68.376367,14.8818359 L68.376367,14.8818359 Z M64.876367,16.9394531 C64.3431612,16.3834608 63.6390667,16.1054688 62.7640623,16.1054688 C61.9437457,16.1054688 61.2533229,16.3789035 60.6927732,16.9257812 C60.1322235,17.472659 59.7744797,18.2154901 59.619531,19.1542969 L65.6761717,19.1542969 C65.6761717,18.2337194 65.4095728,17.4954455 64.876367,16.9394531 L64.876367,16.9394531 Z M78.5128903,13.4257812 C79.3423216,12.9518205 80.2993432,12.7057293 81.3839841,12.6875 L81.3839841,17.0488281 C81.23815,17.0305989 81.014845,17.0214844 80.7140622,17.0214844 C79.5200458,17.0214844 78.5447952,17.3108695 77.788281,17.8896484 C77.0317668,18.4684274 76.5988284,19.2545523 76.4894528,20.2480469 L76.4894528,28 L71.6359372,28 L71.6359372,12.90625 L76.4894528,12.90625 L76.4894528,15.4492188 C77.0089867,14.5742144 77.6834591,13.899742 78.5128903,13.4257812 L78.5128903,13.4257812 Z M98.5820309,28 L94.9453121,14.4511719 L91.2539059,28 L86.099609,28 L79.6874996,8.39453125 L85.005859,8.39453125 L88.8476559,22.8183594 L92.5937496,8.39453125 L97.4609371,8.39453125 L101.302734,22.8183594 L105.076172,8.39453125 L110.175781,8.39453125 L103.708984,28 L98.5820309,28 Z M120.148242,13.6923828 C121.401503,14.3258495 122.367639,15.2259056 123.046679,16.3925781 C123.725719,17.5592506 124.065234,18.9081955 124.065234,20.4394531 C124.065234,21.9707108 123.725719,23.3196556 123.046679,24.4863281 C122.367639,25.6530006 121.401503,26.557614 120.148242,27.2001953 C118.89498,27.8427767 117.457169,28.1640625 115.834765,28.1640625 C114.194132,28.1640625 112.754042,27.8427767 111.514453,27.2001953 C110.274863,26.557614 109.308727,25.6530006 108.616015,24.4863281 C107.923303,23.3196556 107.576953,21.9707108 107.576953,20.4394531 C107.576953,18.9081955 107.923303,17.5592506 108.616015,16.3925781 C109.308727,15.2259056 110.274863,14.3258495 111.514453,13.6923828 C112.754042,13.0589161 114.194132,12.7421875 115.834765,12.7421875 C117.457169,12.7421875 118.89498,13.0589161 120.148242,13.6923828 L120.148242,13.6923828 Z M113.394336,17.6640625 C112.769983,18.3932328 112.457812,19.3365828 112.457812,20.4941406 C112.457812,21.6699278 112.769983,22.6178349 113.394336,23.3378906 C114.018688,24.0579463 114.832156,24.4179688 115.834765,24.4179688 C116.82826,24.4179688 117.637171,24.0579463 118.261523,23.3378906 C118.885875,22.6178349 119.198046,21.6699278 119.198046,20.4941406 C119.198046,19.3365828 118.885875,18.3932328 118.261523,17.6640625 C117.637171,16.9348922 116.82826,16.5703125 115.834765,16.5703125 C114.832156,16.5703125 114.018688,16.9348922 113.394336,17.6640625 L113.394336,17.6640625 Z M132.239843,13.4257812 C133.069274,12.9518205 134.026296,12.7057293 135.110937,12.6875 L135.110937,17.0488281 C134.965103,17.0305989 134.741798,17.0214844 134.441015,17.0214844 C133.246999,17.0214844 132.271748,17.3108695 131.515234,17.8896484 C130.75872,18.4684274 130.325781,19.2545523 130.216406,20.2480469 L130.216406,28 L125.36289,28 L125.36289,12.90625 L130.216406,12.90625 L130.216406,15.4492188 C130.73594,14.5742144 131.410412,13.899742 132.239843,13.4257812 L132.239843,13.4257812 Z M141.002343,23.8847656 L141.002343,28 L136.162499,28 L136.162499,7.21875 L141.002343,7.21875 L141.002343,18.1972656 L145.978906,12.90625 L151.474999,12.90625 L145.924218,18.703125 L151.639062,28 L145.896874,28 L142.629296,22.1757812 L141.002343,23.8847656 Z M160.579296,13.1318359 C161.645708,13.4280614 162.643745,13.8496066 163.573437,14.3964844 L161.91914,17.5273438 C160.050641,16.5156199 158.464719,16.0097656 157.161327,16.0097656 C156.714711,16.0097656 156.356967,16.0986319 156.088085,16.2763672 C155.819204,16.4541025 155.684765,16.7115869 155.684765,17.0488281 C155.684765,17.4042987 155.889841,17.6891265 156.299999,17.9033203 C156.710158,18.1175141 157.380073,18.3567695 158.309765,18.6210938 C159.376177,18.9218765 160.26484,19.2249334 160.975781,19.5302734 C161.686722,19.8356135 162.30195,20.3004526 162.821484,20.9248047 C163.341018,21.5491568 163.600781,22.3580679 163.600781,23.3515625 C163.600781,24.8645909 163.012896,26.0494749 161.837109,26.90625 C160.661322,27.7630251 159.130087,28.1914062 157.243359,28.1914062 C155.976425,28.1914062 154.755083,28.0091164 153.579296,27.6445312 C152.403509,27.2799461 151.369014,26.7558628 150.475781,26.0722656 L152.007031,22.9824219 C152.845576,23.5839874 153.736518,24.0488265 154.679882,24.3769531 C155.623246,24.7050798 156.518745,24.8691406 157.366406,24.8691406 C157.86771,24.8691406 158.266469,24.7802743 158.562695,24.6025391 C158.85892,24.4248038 159.007031,24.1673194 159.007031,23.8300781 C159.007031,23.4381491 158.79284,23.130535 158.364452,22.9072266 C157.936065,22.6839182 157.26615,22.4401055 156.354687,22.1757812 C155.306505,21.8749985 154.438349,21.5719416 153.750195,21.2666016 C153.06204,20.9612615 152.469598,20.5055369 151.972851,19.8994141 C151.476104,19.2932912 151.227734,18.4934946 151.227734,17.5 C151.227734,15.9869716 151.797389,14.8066449 152.936718,13.9589844 C154.076047,13.1113239 155.552594,12.6875 157.366406,12.6875 C158.441932,12.6875 159.512885,12.8356105 160.579296,13.1318359 L160.579296,13.1318359 Z" id="WaterWorks"></path>
        </g>
    </g>
</svg>