<svg id="icon-edit" xmlns="http://www.w3.org/2000/svg" aria-hidden="true" focusable="false" viewBox="0 0 16 16" width="16" height="16">
    <title>edit</title>
    <path fill="currentColor" d="M11.2759 3.1708C11.1716 3.06649 11.0151 3.06649 10.9108 3.1708L5.22631 8.85528L4.96556 11.2803C4.9134 11.5932 5.20024 11.8801 5.51314 11.8279L7.93818 11.5671L13.6227 5.88266C13.727 5.77836 13.727 5.6219 13.6227 5.5176L11.2759 3.1708ZM15.5001 2.57106L14.2224 1.29335C13.8313 0.902216 13.1794 0.902216 12.7882 1.29335L11.8756 2.206C11.7713 2.3103 11.7713 2.46675 11.8756 2.57106L14.2224 4.91786C14.3267 5.02216 14.4832 5.02216 14.5875 4.91786L15.5001 4.00522C15.8912 3.61408 15.8912 2.96219 15.5001 2.57106ZM10.8065 10.0287V12.6623H2.4623V4.31812H8.43361C8.53792 4.31812 8.61614 4.29205 8.66829 4.2399L9.71132 3.19687C9.89385 2.98827 9.76347 2.64928 9.47664 2.64928H2.04509C1.34105 2.64928 0.793457 3.22295 0.793457 3.90091V13.0795C0.793457 13.7836 1.34105 14.3312 2.04509 14.3312H11.2237C11.9017 14.3312 12.4753 13.7836 12.4753 13.0795V8.98566C12.4753 8.69883 12.1364 8.56845 11.9277 8.75098L10.8847 9.794C10.8326 9.84615 10.8065 9.92438 10.8065 10.0287Z" />
</svg>
