<svg id="icon-email" xmlns="http://www.w3.org/2000/svg" aria-hidden="true" focusable="false" viewBox="0 0 16 16" width="16" height="16">
  <title>email</title>
  <path fill="currentColor" d="M14.5 2H1.5C0.671562 2 0 2.67156 0 3.5V12.5C0 13.3284 0.671562 14 1.5 14H14.5C15.3284 14 16 13.3284 16 12.5V3.5C16 2.67156 15.3284 2 14.5 2ZM14.5 3.5V4.77516C13.7993 5.34575 12.6822 6.233 10.2942 8.10297C9.76787 8.51694 8.72537 9.51147 8 9.49988C7.27475 9.51159 6.23191 8.51678 5.70584 8.10297C3.31813 6.23328 2.20078 5.34584 1.5 4.77516V3.5H14.5ZM1.5 12.5V6.69994C2.21606 7.27028 3.23153 8.07063 4.77931 9.28263C5.46234 9.82028 6.6585 11.0072 8 11C9.33491 11.0072 10.5159 9.8375 11.2204 9.28288C12.7682 8.07091 13.7839 7.27034 14.5 6.69997V12.5H1.5Z"/>
</svg>
