<svg id="icon-external-link" role="img" xmlns="http://www.w3.org/2000/svg" viewBox="0 0 16 16" width="16" height="16">
    <title>external link</title>
    <path fill="currentColor" d="M16 1.66667V5.22222C16 5.40741 15.9352 5.56482 15.8056 5.69444C15.6759 5.82407 15.5185 5.88889 15.3333 5.88889C15.1481 5.88889 14.9907 5.82407 14.8611 5.69444L13.8611 4.69444L7.11111 11.4722C6.98148 11.6019 6.82407 11.6667 6.63889 11.6667C6.4537 11.6667 6.2963 11.6019 6.16667 11.4722L5.52778 10.8333C5.39815 10.7037 5.33333 10.5463 5.33333 10.3611C5.33333 10.1759 5.39815 10.0185 5.52778 9.88889L12.3056 3.13889L11.3056 2.13889C11.1759 2.00926 11.1111 1.85185 11.1111 1.66667C11.1111 1.48148 11.1759 1.32407 11.3056 1.19444C11.4352 1.06481 11.5926 1 11.7778 1H15.3333C15.5185 1 15.6759 1.06481 15.8056 1.19444C15.9352 1.32407 16 1.48148 16 1.66667ZM11.3056 8.52778L10.8611 8.97222C10.7315 9.10185 10.6667 9.25926 10.6667 9.44444V13.4444H1.77778V4.55556H9.11111C9.2963 4.55556 9.4537 4.49074 9.58333 4.36111L10.0278 3.91667C10.1574 3.78704 10.2222 3.62963 10.2222 3.44444C10.2222 3.25926 10.1574 3.10185 10.0278 2.97222C9.89815 2.84259 9.74074 2.77778 9.55556 2.77778H1.33333C0.962963 2.77778 0.648148 2.90741 0.388889 3.16667C0.12963 3.42593 0 3.74074 0 4.11111V13.8889C0 14.2593 0.12963 14.5741 0.388889 14.8333C0.648148 15.0926 0.962963 15.2222 1.33333 15.2222H11.1111C11.4815 15.2222 11.7963 15.0926 12.0556 14.8333C12.3148 14.5741 12.4444 14.2593 12.4444 13.8889V9C12.4444 8.7963 12.3796 8.63889 12.25 8.52778C12.1204 8.39815 11.963 8.33333 11.7778 8.33333C11.5926 8.31482 11.4352 8.37963 11.3056 8.52778Z" />
</svg>
