<svg id="icon-information" role="img" xmlns="http://www.w3.org/2000/svg" viewBox="0 0 16 16" width="16" height="16">
    <title>information</title>
    <path fill="currentColor" d="M10.6667 13C10.6667 13.1875 10.5208 13.3333 10.3333 13.3333H5.66667C5.47917 13.3333 5.33333 13.1875 5.33333 13V11.3333C5.33333 11.1458 5.47917 11 5.66667 11H6.66667V7.66667H5.66667C5.47917 7.66667 5.33333 7.52083 5.33333 7.33333V5.66667C5.33333 5.47917 5.47917 5.33333 5.66667 5.33333H9C9.1875 5.33333 9.33333 5.47917 9.33333 5.66667V11H10.3333C10.5208 11 10.6667 11.1458 10.6667 11.3333V13ZM9.33333 3.66667C9.33333 3.85417 9.1875 4 9 4H7C6.8125 4 6.66667 3.85417 6.66667 3.66667V2C6.66667 1.8125 6.8125 1.66667 7 1.66667H9C9.1875 1.66667 9.33333 1.8125 9.33333 2V3.66667ZM16 8C16 3.58333 12.4167 0 8 0C3.58333 0 0 3.58333 0 8C0 12.4167 3.58333 16 8 16C12.4167 16 16 12.4167 16 8Z" />
</svg>
