<svg role="img" aria-hidden="true" focusable="false" width="16" height="16" viewBox="0 0 16 16" fill="currentColor" xmlns="http://www.w3.org/2000/svg"><!-- Font Awesome Free 5.15.4 by @fontawesome - https://fontawesome.com License - https://fontawesome.com/license/free (Icons: CC BY 4.0, Fonts: SIL OFL 1.1, Code: MIT License) --><path d="M8.00179 3.89693C5.73162 3.89693 3.9005 5.72805 3.9005 7.99822C3.9005 10.2684 5.73162 12.0995 8.00179 12.0995C10.2719 12.0995 12.1031 10.2684 12.1031 7.99822C12.1031 5.72805 10.2719 3.89693 8.00179 3.89693ZM8.00179 10.6646C6.53475 10.6646 5.33542 9.46882 5.33542 7.99822C5.33542 6.52761 6.53118 5.33185 8.00179 5.33185C9.47239 5.33185 10.6682 6.52761 10.6682 7.99822C10.6682 9.46882 9.46882 10.6646 8.00179 10.6646V10.6646ZM13.2274 3.72917C13.2274 4.26102 12.7991 4.68578 12.2708 4.68578C11.739 4.68578 11.3142 4.25745 11.3142 3.72917C11.3142 3.20089 11.7426 2.77256 12.2708 2.77256C12.7991 2.77256 13.2274 3.20089 13.2274 3.72917ZM15.9438 4.70006C15.8831 3.41863 15.5904 2.28355 14.6516 1.34835C13.7165 0.413162 12.5814 0.120468 11.2999 0.0562186C9.97925 -0.0187395 6.02075 -0.0187395 4.70006 0.0562186C3.4222 0.116899 2.28712 0.409593 1.34835 1.34479C0.409593 2.27998 0.120468 3.41506 0.0562186 4.69649C-0.0187395 6.01718 -0.0187395 9.97568 0.0562186 11.2964C0.116899 12.5778 0.409593 13.7129 1.34835 14.6481C2.28712 15.5833 3.41863 15.876 4.70006 15.9402C6.02075 16.0152 9.97925 16.0152 11.2999 15.9402C12.5814 15.8795 13.7165 15.5868 14.6516 14.6481C15.5868 13.7129 15.8795 12.5778 15.9438 11.2964C16.0187 9.97568 16.0187 6.02075 15.9438 4.70006V4.70006ZM14.2376 12.7134C13.9592 13.4131 13.4202 13.952 12.717 14.234C11.664 14.6516 9.16542 14.5553 8.00179 14.5553C6.83815 14.5553 4.33597 14.6481 3.28656 14.234C2.58695 13.9556 2.04796 13.4166 1.76598 12.7134C1.34835 11.6605 1.44473 9.16185 1.44473 7.99822C1.44473 6.83458 1.35192 4.3324 1.76598 3.28299C2.0444 2.58338 2.58338 2.04439 3.28656 1.76241C4.33954 1.34479 6.83815 1.44116 8.00179 1.44116C9.16542 1.44116 11.6676 1.34835 12.717 1.76241C13.4166 2.04083 13.9556 2.57981 14.2376 3.28299C14.6552 4.33597 14.5588 6.83458 14.5588 7.99822C14.5588 9.16185 14.6552 11.664 14.2376 12.7134Z"/></svg>
