<svg role="img" aria-hidden="true" focusable="false" width="16" height="16" viewBox="0 0 16 16" fill="currentColor" xmlns="http://www.w3.org/2000/svg"><!-- Font Awesome Free 5.15.4 by @fontawesome - https://fontawesome.com License - https://fontawesome.com/license/free (Icons: CC BY 4.0, Fonts: SIL OFL 1.1, Code: MIT License) --><path d="M3.58143 15.9996H0.264286V5.3175H3.58143V15.9996ZM1.92107 3.86036C0.860357 3.86036 0 2.98179 0 1.92107C7.59214e-09 1.41157 0.202398 0.922939 0.562669 0.562669C0.92294 0.202398 1.41157 0 1.92107 0C2.43057 0 2.9192 0.202398 3.27947 0.562669C3.63974 0.922939 3.84214 1.41157 3.84214 1.92107C3.84214 2.98179 2.98143 3.86036 1.92107 3.86036ZM15.9964 15.9996H12.6864V10.7996C12.6864 9.56036 12.6614 7.97107 10.9618 7.97107C9.23714 7.97107 8.97286 9.3175 8.97286 10.7104V15.9996H5.65929V5.3175H8.84071V6.77464H8.88714C9.33 5.93536 10.4118 5.04964 12.0257 5.04964C15.3829 5.04964 16 7.26036 16 10.1318V15.9996H15.9964Z"/>
</svg>
