<svg role="img" aria-hidden="true" focusable="false" width="16" height="16" viewBox="0 -1.89 16 16" fill="currentColor" xmlns="http://www.w3.org/2000/svg"><!-- Font Awesome Free 5.15.4 by @fontawesome - https://fontawesome.com License - https://fontawesome.com/license/free (Icons: CC BY 4.0, Fonts: SIL OFL 1.1, Code: MIT License) --><path d="M9.97554 0C7.77876 0 5.90743 1.0084 4.85712 2.55181C4.76959 2.67509 4.62043 2.95493 4.42072 2.95616C3.4604 2.96356 3.40123 1.77887 3.37041 0.722398C3.36694 0.646729 3.33458 0.575272 3.27999 0.522752C3.22541 0.470231 3.15276 0.440646 3.07701 0.440095L0.295903 0.421604C0.256631 0.421599 0.217751 0.429411 0.18153 0.444587C0.145309 0.459762 0.112473 0.481998 0.0849345 0.509996C0.0573957 0.537994 0.0357046 0.571195 0.0211295 0.607662C0.00655432 0.644129 -0.000613422 0.683132 4.11061e-05 0.722398C0.0616791 3.30257 0.536292 5.05555 3.66381 5.75329C3.74714 5.77264 3.82138 5.81983 3.87427 5.88707C3.92717 5.95431 3.95555 6.03758 3.95474 6.12312V11.9171C3.95473 11.9557 3.96237 11.9939 3.97721 12.0295C3.99205 12.0651 4.01379 12.0974 4.04118 12.1246C4.06857 12.1517 4.10107 12.1732 4.1368 12.1877C4.17253 12.2023 4.21079 12.2096 4.24937 12.2093H6.95281C7.03095 12.2093 7.10589 12.1782 7.16115 12.123C7.2164 12.0677 7.24744 11.9928 7.24744 11.9146V5.93204C7.24744 4.6019 8.1905 3.09669 9.97924 3.09669C11.6817 3.09669 12.7098 4.60559 12.7098 5.93204V11.9171C12.7098 11.9952 12.7408 12.0702 12.7961 12.1254C12.8514 12.1807 12.9263 12.2117 13.0044 12.2117H15.7054C15.7833 12.2114 15.858 12.1802 15.913 12.125C15.9679 12.0698 15.9988 11.995 15.9988 11.9171V5.48825C15.9976 2.41375 13.3743 0 9.97554 0Z"/>
</svg>
