<svg id="icon-oregon-relay" role="img" xmlns="http://www.w3.org/2000/svg" viewBox="0 0 16 16" width="16" height="16">
    <title>Oregon Relay Service</title>
    <path fill="currentColor" d="M7.59728 0.0622559C4.92023 0.0622559 0.5 1.99222 0.5 7.84436C0.769779 5.74838 2.61673 1.61868 7.59728 1.61868C12.5778 1.61868 13.0136 6.53696 13.0136 6.22568C13.0136 0.0622559 7.90856 0.0622559 7.59728 0.0622559Z" />
    <path fill="currentColor" d="M9.09144 16C11.7685 16 16.1887 14.07 16.1887 8.2179C15.9189 10.3139 14.072 14.4436 9.09144 14.4436C4.1109 14.4436 3.6751 9.52529 3.6751 9.83657C3.6751 16 8.78016 16 9.09144 16Z" />
    <path fill="currentColor" d="M7.22373 1.99222C8.75102 1.99222 9.97957 2.5897 10.7715 3.17393C10.9859 3.33208 10.7976 3.62297 10.5374 3.56606C7.43698 2.8881 3.30155 5.01081 3.30155 10.0233C3.30155 15.6265 7.97081 15.9377 6.47665 15.9377C4.98249 15.9377 0.749023 13.572 0.749023 9.02724C0.749023 4.48249 4.42218 1.99222 7.22373 1.99222Z" />
    <path fill="currentColor" d="M9.52725 13.9455C7.99996 13.9455 6.7714 13.348 5.9795 12.7638C5.76513 12.6057 5.95334 12.3148 6.21359 12.3717C9.31399 13.0496 13.4494 10.9269 13.4494 5.9144C13.4494 0.311285 8.78016 9.53674e-07 10.2743 9.53674e-07C11.7685 9.53674e-07 16.002 2.36576 16.002 6.91051C16.002 11.4553 12.3288 13.9455 9.52725 13.9455Z" />
</svg>
