<svg id="icon-share" role="img" xmlns="http://www.w3.org/2000/svg" viewBox="0 0 16 16" width="16" height="16">
    <title>share</title>
    <path fill="currentColor" d="M15 6.5C15 6.36719 14.9453 6.24219 14.8516 6.14844L10.8516 2.14844C10.7578 2.05469 10.6328 2 10.5 2C10.2266 2 10 2.22656 10 2.5V4.5H8.25C5.6875 4.5 2.5 4.95312 1.41406 7.64844C1.08594 8.47656 1 9.375 1 10.25C1 11.3438 1.54688 12.7734 1.99219 13.7734C2.07812 13.9531 2.16406 14.2031 2.28125 14.3672C2.33594 14.4453 2.39062 14.5 2.5 14.5C2.65625 14.5 2.75 14.375 2.75 14.2266C2.75 14.1016 2.71875 13.9609 2.71094 13.8359C2.6875 13.5156 2.67188 13.1953 2.67188 12.875C2.67188 9.14844 4.88281 8.5 8.25 8.5H10V10.5C10 10.7734 10.2266 11 10.5 11C10.6328 11 10.7578 10.9453 10.8516 10.8516L14.8516 6.85156C14.9453 6.75781 15 6.63281 15 6.5Z" />
</svg>
