<svg width="16" height="16" viewBox="0 0 16 16" fill="none" xmlns="http://www.w3.org/2000/svg">
<path d="M8 0C3.58065 0 0 3.58065 0 8C0 12.4194 3.58065 16 8 16C12.4194 16 16 12.4194 16 8C16 3.58065 12.4194 0 8 0ZM8 14.4516C4.41935 14.4516 1.54839 11.5806 1.54839 8C1.54839 4.45161 4.41935 1.54839 8 1.54839C11.5484 1.54839 14.4516 4.45161 14.4516 8C14.4516 11.5806 11.5484 14.4516 8 14.4516ZM11.2581 6C11.4194 5.87097 11.4194 5.6129 11.2581 5.45161L10.5484 4.74194C10.3871 4.58065 10.129 4.58065 10 4.74194L8 6.74194L5.96774 4.74194C5.83871 4.58065 5.58065 4.58065 5.41935 4.74194L4.70968 5.45161C4.54839 5.6129 4.54839 5.87097 4.70968 6L6.70968 8L4.70968 10.0323C4.54839 10.1613 4.54839 10.4194 4.70968 10.5806L5.41935 11.2903C5.58065 11.4516 5.83871 11.4516 5.96774 11.2903L8 9.29032L10 11.2903C10.129 11.4516 10.3871 11.4516 10.5484 11.2903L11.2581 10.5806C11.4194 10.4194 11.4194 10.1613 11.2581 10.0323L9.25806 8L11.2581 6Z" fill="black"/>
</svg>
