<svg id="icon-tty" role="img" xmlns="http://www.w3.org/2000/svg" viewBox="0 0 16 16" width="16" height="16">
    <title>TTY</title>
    <path fill="currentColor" d="M0.168047 3.24443C4.49716 -1.08469 11.5098 -1.07826 15.8325 3.24443C16.0224 3.43437 16.0535 3.72868 15.9132 3.95321L14.5627 6.11377C14.4915 6.22771 14.3826 6.31299 14.2549 6.35472C14.1272 6.39645 13.9889 6.39196 13.8641 6.34206L11.1634 5.26177C11.0481 5.21562 10.9508 5.13322 10.8864 5.027C10.8219 4.92077 10.7938 4.79647 10.8061 4.67284L10.9921 2.81249C9.05009 2.11081 6.90975 2.12543 5.00829 2.81249L5.19432 4.67287C5.20669 4.7965 5.17853 4.92081 5.11408 5.02704C5.04963 5.13328 4.95238 5.21567 4.83701 5.26181L2.13629 6.34206C2.01156 6.39195 1.87326 6.39643 1.74555 6.3547C1.61785 6.31297 1.50888 6.2277 1.43767 6.11377L0.0873288 3.95318C0.0186656 3.84332 -0.0107351 3.71343 0.00392475 3.58471C0.0185846 3.45599 0.0764394 3.33604 0.168047 3.24443ZM3.00023 9.62499V8.37499C3.00023 8.1679 2.83232 7.99999 2.62523 7.99999H1.37523C1.16814 7.99999 1.00023 8.1679 1.00023 8.37499V9.62499C1.00023 9.83209 1.16814 9.99999 1.37523 9.99999H2.62523C2.83232 9.99999 3.00023 9.83209 3.00023 9.62499ZM6.00022 9.62499V8.37499C6.00022 8.1679 5.83232 7.99999 5.62522 7.99999H4.37523C4.16813 7.99999 4.00023 8.1679 4.00023 8.37499V9.62499C4.00023 9.83209 4.16813 9.99999 4.37523 9.99999H5.62522C5.83232 9.99999 6.00022 9.83209 6.00022 9.62499ZM9.00022 9.62499V8.37499C9.00022 8.1679 8.83231 7.99999 8.62522 7.99999H7.37522C7.16813 7.99999 7.00022 8.1679 7.00022 8.37499V9.62499C7.00022 9.83209 7.16813 9.99999 7.37522 9.99999H8.62522C8.83231 9.99999 9.00022 9.83209 9.00022 9.62499ZM12.0002 9.62499V8.37499C12.0002 8.1679 11.8323 7.99999 11.6252 7.99999H10.3752C10.1681 7.99999 10.0002 8.1679 10.0002 8.37499V9.62499C10.0002 9.83209 10.1681 9.99999 10.3752 9.99999H11.6252C11.8323 9.99999 12.0002 9.83209 12.0002 9.62499ZM15.0002 9.62499V8.37499C15.0002 8.1679 14.8323 7.99999 14.6252 7.99999H13.3752C13.1681 7.99999 13.0002 8.1679 13.0002 8.37499V9.62499C13.0002 9.83209 13.1681 9.99999 13.3752 9.99999H14.6252C14.8323 9.99999 15.0002 9.83209 15.0002 9.62499ZM4.50023 12.625V11.375C4.50023 11.1679 4.33232 11 4.12523 11H2.87523C2.66814 11 2.50023 11.1679 2.50023 11.375V12.625C2.50023 12.8321 2.66814 13 2.87523 13H4.12523C4.33232 13 4.50023 12.8321 4.50023 12.625ZM7.50022 12.625V11.375C7.50022 11.1679 7.33232 11 7.12522 11H5.87522C5.66813 11 5.50023 11.1679 5.50023 11.375V12.625C5.50023 12.8321 5.66813 13 5.87522 13H7.12522C7.33232 13 7.50022 12.8321 7.50022 12.625ZM10.5002 12.625V11.375C10.5002 11.1679 10.3323 11 10.1252 11H8.87522C8.66813 11 8.50022 11.1679 8.50022 11.375V12.625C8.50022 12.8321 8.66813 13 8.87522 13H10.1252C10.3323 13 10.5002 12.8321 10.5002 12.625ZM13.5002 12.625V11.375C13.5002 11.1679 13.3323 11 13.1252 11H11.8752C11.6681 11 11.5002 11.1679 11.5002 11.375V12.625C11.5002 12.8321 11.6681 13 11.8752 13H13.1252C13.3323 13 13.5002 12.8321 13.5002 12.625ZM3.00023 15.625V14.375C3.00023 14.1679 2.83232 14 2.62523 14H1.37523C1.16814 14 1.00023 14.1679 1.00023 14.375V15.625C1.00023 15.8321 1.16814 16 1.37523 16H2.62523C2.83232 16 3.00023 15.8321 3.00023 15.625ZM12.0002 15.625V14.375C12.0002 14.1679 11.8323 14 11.6252 14H4.37523C4.16813 14 4.00023 14.1679 4.00023 14.375V15.625C4.00023 15.8321 4.16813 16 4.37523 16H11.6252C11.8323 16 12.0002 15.8321 12.0002 15.625ZM15.0002 15.625V14.375C15.0002 14.1679 14.8323 14 14.6252 14H13.3752C13.1681 14 13.0002 14.1679 13.0002 14.375V15.625C13.0002 15.8321 13.1681 16 13.3752 16H14.6252C14.8323 16 15.0002 15.8321 15.0002 15.625Z" />
</svg>
