<svg width="18" height="16"  aria-hidden="true" focusable="false" viewBox="0 0 18 16" xmlns="http://www.w3.org/2000/svg">
<path d="M14.9497 11.5355L11.4142 8L14.9497 4.46447C15.3254 4.08882 15.3254 3.42591 14.9497 3.05026C14.552 2.65251 13.9112 2.67461 13.5355 3.05026L10 6.58579L6.46447 3.05026C6.06672 2.65251 5.4259 2.67461 5.05025 3.05026C4.65251 3.448 4.65251 4.06672 5.05025 4.46447L8.58579 8L5.05025 11.5355C4.65251 11.9333 4.65251 12.552 5.05025 12.9498C5.4259 13.3254 6.06672 13.3475 6.46447 12.9498L10 9.41422L13.5355 12.9498C13.9112 13.3254 14.552 13.3475 14.9497 12.9498C15.3254 12.5741 15.3254 11.9112 14.9497 11.5355Z" fill="currentColor"/>
</svg>
