<svg width="100" height="150" viewBox="0 0 100 150" fill="none" xmlns="http://www.w3.org/2000/svg">
<rect width="100" height="150" fill="#CED4DA"/>
<rect x="1" y="10" width="98" height="120" fill="white"/>
<rect x="10" y="20" width="80" height="5" fill="#CED4DA"/>
<rect x="10" y="35" width="50" height="1" fill="#CED4DA"/>
<rect x="10" y="38" width="50" height="1" fill="#CED4DA"/>
<rect x="10" y="41" width="50" height="1" fill="#CED4DA"/>
<rect x="10" y="44" width="50" height="1" fill="#CED4DA"/>
<rect x="10" y="48" width="39" height="1" fill="#CED4DA"/>
<rect x="10" y="51" width="39" height="1" fill="#CED4DA"/>
<rect x="10" y="54" width="39" height="1" fill="#CED4DA"/>
<rect x="10" y="57" width="39" height="1" fill="#CED4DA"/>
<rect x="10" y="61" width="39" height="1" fill="#CED4DA"/>
<rect x="10" y="64" width="39" height="1" fill="#CED4DA"/>
<rect x="10" y="67" width="39" height="1" fill="#CED4DA"/>
<rect x="10" y="70" width="39" height="1" fill="#CED4DA"/>
<rect x="10" y="74" width="39" height="1" fill="#CED4DA"/>
<rect x="10" y="77" width="39" height="1" fill="#CED4DA"/>
<rect x="10" y="80" width="39" height="1" fill="#CED4DA"/>
<rect x="10" y="83" width="39" height="1" fill="#CED4DA"/>
<rect x="10" y="87" width="50" height="1" fill="#CED4DA"/>
<rect x="10" y="90" width="50" height="1" fill="#CED4DA"/>
<rect x="10" y="93" width="50" height="1" fill="#CED4DA"/>
<rect x="10" y="96" width="50" height="1" fill="#CED4DA"/>
<rect x="52" y="80" width="38" height="1" fill="#CED4DA"/>
<rect x="52" y="83" width="15" height="1" fill="#CED4DA"/>
<rect x="10" y="101" width="50" height="1" fill="#CED4DA"/>
<rect x="10" y="104" width="50" height="1" fill="#CED4DA"/>
<rect x="10" y="107" width="50" height="1" fill="#CED4DA"/>
<rect x="10" y="110" width="50" height="1" fill="#CED4DA"/>
<rect x="10" y="114" width="50" height="1" fill="#CED4DA"/>
<rect x="10" y="117" width="50" height="1" fill="#CED4DA"/>
<rect x="10" y="120" width="50" height="1" fill="#CED4DA"/>
<rect x="10" y="123" width="50" height="1" fill="#CED4DA"/>
<rect x="10" y="27" width="50" height="5" fill="#CED4DA"/>
<rect x="52" y="48" width="38" height="30" fill="white"/>
<rect x="60.5" y="48.5" width="21" height="29" fill="#343A40" stroke="#343A40"/>
</svg>
