<svg width="100" height="150" viewBox="0 0 100 150" fill="none" xmlns="http://www.w3.org/2000/svg">
<rect width="100" height="150" fill="#ced4da"/>
<rect x="1" y="10" width="98" height="120" fill="#fff"/>
<rect x="10" y="20" width="80" height="5" fill="#ced4da"/>
<rect x="10" y="35" width="50" height="1" fill="#ced4da"/>
<rect x="10" y="38" width="50" height="1" fill="#ced4da"/>
<rect x="10" y="41" width="50" height="1" fill="#ced4da"/>
<rect x="10" y="44" width="50" height="1" fill="#ced4da"/>
<rect x="10" y="71.11" width="22" height="1" fill="#ced4da"/>
<rect x="10" y="86.5" width="43.5" height="1" fill="#ced4da"/>
<rect x="10" y="114" width="50" height="1" fill="#ced4da"/>
<rect x="10" y="117" width="50" height="1" fill="#ced4da"/>
<rect x="10" y="120" width="50" height="1" fill="#ced4da"/>
<rect x="10" y="123" width="50" height="1" fill="#ced4da"/>
<rect x="10" y="107" width="50" height="1" fill="#ced4da"/>
<rect x="10" y="110" width="50" height="1" fill="#ced4da"/>
<rect x="10" y="27" width="50" height="5" fill="#ced4da"/>
<rect x="10" y="48" width="22" height="22" fill="#343a40"/>
<rect x="10" y="74" width="50" height="1" fill="#ced4da"/>
<rect x="10" y="77.08" width="50" height="1" fill="#ced4da"/>
<rect x="10" y="80.17" width="50" height="1" fill="#ced4da"/>
<rect x="10" y="83.44" width="50" height="1" fill="#ced4da"/>
<rect x="10" y="89.68" width="50" height="1" fill="#ced4da"/>
<rect x="10" y="93.04" width="50" height="1" fill="#ced4da"/>
<rect x="10" y="96.29" width="34.83" height="1" fill="#ced4da"/>
<rect x="10" y="99.79" width="40.83" height="1" fill="#ced4da"/>
<rect x="10" y="103.4" width="50" height="1" fill="#ced4da"/>
</svg>
