<svg id="icon-accessibility" xmlns="http://www.w3.org/2000/svg" aria-hidden="true" focusable="false" viewBox="0 0 16 16" width="16" height="16">
    <title>accessibility</title>
    <path fill="currentColor" d="M10.8 10.5C10.9636 12.8364 9.07273 14.8364 6.73636 14.8364C4.49091 14.8364 2.66364 13.0091 2.66364 10.7636C2.66364 9.14545 3.61818 7.69091 5.1 7.03636L4.94545 5.84545C2.88182 6.6 1.5 8.56363 1.5 10.7636C1.5 13.6455 3.85455 16 6.73636 16C9.00909 16 11.0273 14.5182 11.7273 12.3545L10.8 10.5ZM15.7818 11.4091L13.9818 12.3091L11.9091 8.17273C11.8182 7.98182 11.6091 7.85455 11.3909 7.85455H7.25454L7.10909 6.69091H10.8091V5.52727H6.96364L6.62727 2.9C7.46364 2.99091 8.19091 2.28182 8.19091 1.45454C8.19091 0.654545 7.53636 0 6.73636 0C6.09091 0 5.50909 0.409091 5.33636 1.03636C5.30909 1.12727 5.27273 1.32727 5.28182 1.41818L6.15455 8.5C6.19091 8.79091 6.44545 9.01818 6.73636 9.01818H11.0273L13.2 13.3545C13.2909 13.5455 13.5 13.6727 13.7182 13.6727C13.8091 13.6727 13.9 13.6545 13.9818 13.6091L16.3091 12.4455L15.7818 11.4091Z" />
</svg>
