<svg width="16" height="16" viewBox="0 0 16 16" fill="none" xmlns="http://www.w3.org/2000/svg">
<path d="M8.07118 15.1429C8.07118 15.2232 8.00868 15.2857 7.92833 15.2857C7.06226 15.2857 6.3569 14.5804 6.3569 13.7143C6.3569 13.6339 6.4194 13.5714 6.49976 13.5714C6.58011 13.5714 6.64261 13.6339 6.64261 13.7143C6.64261 14.4196 7.22297 15 7.92833 15C8.00868 15 8.07118 15.0625 8.07118 15.1429ZM15.3569 12.5714C14.0355 11.4554 12.4998 9.45536 12.4998 5.14286C12.4998 3.42857 11.0801 1.55357 8.71404 1.20536C8.75868 1.09822 8.78547 0.982143 8.78547 0.857143C8.78547 0.383929 8.40154 0 7.92833 0C7.45511 0 7.07118 0.383929 7.07118 0.857143C7.07118 0.982143 7.09797 1.09822 7.14261 1.20536C4.77654 1.55357 3.3569 3.42857 3.3569 5.14286C3.3569 9.45536 1.82118 11.4554 0.499756 12.5714C0.499756 13.1964 1.01761 13.7143 1.64261 13.7143H5.64261C5.64261 14.9732 6.6694 16 7.92833 16C9.18726 16 10.214 14.9732 10.214 13.7143H14.214C14.839 13.7143 15.3569 13.1964 15.3569 12.5714Z" fill="black"/>
</svg>
