<svg width="17" height="16" viewBox="0 0 17 16" fill="none" xmlns="http://www.w3.org/2000/svg">
<path d="M5.79167 10.2222C5.58333 11.2361 4.6875 12 3.61111 12C2.38889 12 1.38889 11 1.38889 9.77778C1.38889 8.55555 2.38889 7.55556 3.61111 7.55556C3.95139 7.55556 4.27083 7.63194 4.5625 7.77083L3.25694 9.51389C3.03472 9.80556 3.24306 10.2222 3.61111 10.2222H5.79167ZM4.5 9.33333L5.27083 8.30556C5.52778 8.59028 5.70833 8.94444 5.79167 9.33333H4.5ZM7.83333 9.33333H6.6875C6.59028 8.65278 6.27778 8.04167 5.8125 7.58333L6.5 6.66667H9.83333L7.83333 9.33333ZM15.6111 9.77778C15.6111 11 14.6111 12 13.3889 12C12.1667 12 11.1667 11 11.1667 9.77778C11.1667 9.16667 11.4167 8.61806 11.8125 8.21528L13.0208 10.0208C13.1042 10.1528 13.2431 10.2222 13.3889 10.2222C13.4722 10.2222 13.5625 10.2014 13.6389 10.1458C13.8403 10.0139 13.8958 9.73611 13.7569 9.52778L12.5486 7.72222C12.8125 7.61806 13.0903 7.55556 13.3889 7.55556C14.6111 7.55556 15.6111 8.55555 15.6111 9.77778ZM16.5 9.77778C16.5 8.0625 15.1042 6.66667 13.3889 6.66667C12.9097 6.66667 12.4583 6.77778 12.0556 6.97222L10.2014 4.19444C10.1181 4.07639 9.97917 4 9.83333 4H8.05555C7.8125 4 7.61111 4.20139 7.61111 4.44444C7.61111 4.6875 7.8125 4.88889 8.05555 4.88889H9.59722L10.1875 5.77778H7.16667V4.88889H4.5C4.25694 4.88889 4.05556 5.09028 4.05556 5.33333C4.05556 5.57639 4.25694 5.77778 4.5 5.77778H6.05556L5.10417 7.04861C4.65972 6.80556 4.15278 6.66667 3.61111 6.66667C1.89583 6.66667 0.5 8.0625 0.5 9.77778C0.5 11.4931 1.89583 12.8889 3.61111 12.8889C5.18056 12.8889 6.47222 11.7292 6.6875 10.2222H8.05555C8.19444 10.2222 8.32639 10.1597 8.40972 10.0417L10.8611 6.78472L11.3125 7.46528C10.6806 8.03472 10.2778 8.86111 10.2778 9.77778C10.2778 11.4931 11.6736 12.8889 13.3889 12.8889C15.1042 12.8889 16.5 11.4931 16.5 9.77778Z" fill="black"/>
</svg>
