<svg width="16" height="16" viewBox="0 0 16 16" fill="none" xmlns="http://www.w3.org/2000/svg">
<path d="M13 1H3C2.72656 1 2.5 1.22656 2.5 1.5V14.5C2.5 14.7734 2.72656 15 3 15H13C13.2734 15 13.5 14.7734 13.5 14.5V1.5C13.5 1.22656 13.2734 1 13 1ZM6.5 3.25C6.5 3.10938 6.60938 3 6.75 3H7.25C7.39062 3 7.5 3.10938 7.5 3.25V3.75C7.5 3.89063 7.39062 4 7.25 4H6.75C6.60938 4 6.5 3.89063 6.5 3.75V3.25ZM6.5 5.25C6.5 5.10938 6.60938 5 6.75 5H7.25C7.39062 5 7.5 5.10938 7.5 5.25V5.75C7.5 5.89063 7.39062 6 7.25 6H6.75C6.60938 6 6.5 5.89063 6.5 5.75V5.25ZM6.5 7.25C6.5 7.10938 6.60938 7 6.75 7H7.25C7.39062 7 7.5 7.10938 7.5 7.25V7.75C7.5 7.89063 7.39062 8 7.25 8H6.75C6.60938 8 6.5 7.89063 6.5 7.75V7.25ZM6.5 9.25C6.5 9.10938 6.60938 9 6.75 9H7.25C7.39062 9 7.5 9.10938 7.5 9.25V9.75C7.5 9.89063 7.39062 10 7.25 10H6.75C6.60938 10 6.5 9.89063 6.5 9.75V9.25ZM5.5 11.75C5.5 11.8906 5.39062 12 5.25 12H4.75C4.60938 12 4.5 11.8906 4.5 11.75V11.25C4.5 11.1094 4.60938 11 4.75 11H5.25C5.39062 11 5.5 11.1094 5.5 11.25V11.75ZM5.5 9.75C5.5 9.89063 5.39062 10 5.25 10H4.75C4.60938 10 4.5 9.89063 4.5 9.75V9.25C4.5 9.10938 4.60938 9 4.75 9H5.25C5.39062 9 5.5 9.10938 5.5 9.25V9.75ZM5.5 7.75C5.5 7.89063 5.39062 8 5.25 8H4.75C4.60938 8 4.5 7.89063 4.5 7.75V7.25C4.5 7.10938 4.60938 7 4.75 7H5.25C5.39062 7 5.5 7.10938 5.5 7.25V7.75ZM5.5 5.75C5.5 5.89063 5.39062 6 5.25 6H4.75C4.60938 6 4.5 5.89063 4.5 5.75V5.25C4.5 5.10938 4.60938 5 4.75 5H5.25C5.39062 5 5.5 5.10938 5.5 5.25V5.75ZM5.5 3.75C5.5 3.89063 5.39062 4 5.25 4H4.75C4.60938 4 4.5 3.89063 4.5 3.75V3.25C4.5 3.10938 4.60938 3 4.75 3H5.25C5.39062 3 5.5 3.10938 5.5 3.25V3.75ZM9.5 13.75C9.5 13.8906 9.39063 14 9.25 14H6.75C6.60938 14 6.5 13.8906 6.5 13.75V12.25C6.5 12.1094 6.60938 12 6.75 12H9.25C9.39063 12 9.5 12.1094 9.5 12.25V13.75ZM9.5 9.75C9.5 9.89063 9.39063 10 9.25 10H8.75C8.60938 10 8.5 9.89063 8.5 9.75V9.25C8.5 9.10938 8.60938 9 8.75 9H9.25C9.39063 9 9.5 9.10938 9.5 9.25V9.75ZM9.5 7.75C9.5 7.89063 9.39063 8 9.25 8H8.75C8.60938 8 8.5 7.89063 8.5 7.75V7.25C8.5 7.10938 8.60938 7 8.75 7H9.25C9.39063 7 9.5 7.10938 9.5 7.25V7.75ZM9.5 5.75C9.5 5.89063 9.39063 6 9.25 6H8.75C8.60938 6 8.5 5.89063 8.5 5.75V5.25C8.5 5.10938 8.60938 5 8.75 5H9.25C9.39063 5 9.5 5.10938 9.5 5.25V5.75ZM9.5 3.75C9.5 3.89063 9.39063 4 9.25 4H8.75C8.60938 4 8.5 3.89063 8.5 3.75V3.25C8.5 3.10938 8.60938 3 8.75 3H9.25C9.39063 3 9.5 3.10938 9.5 3.25V3.75ZM11.5 11.75C11.5 11.8906 11.3906 12 11.25 12H10.75C10.6094 12 10.5 11.8906 10.5 11.75V11.25C10.5 11.1094 10.6094 11 10.75 11H11.25C11.3906 11 11.5 11.1094 11.5 11.25V11.75ZM11.5 9.75C11.5 9.89063 11.3906 10 11.25 10H10.75C10.6094 10 10.5 9.89063 10.5 9.75V9.25C10.5 9.10938 10.6094 9 10.75 9H11.25C11.3906 9 11.5 9.10938 11.5 9.25V9.75ZM11.5 7.75C11.5 7.89063 11.3906 8 11.25 8H10.75C10.6094 8 10.5 7.89063 10.5 7.75V7.25C10.5 7.10938 10.6094 7 10.75 7H11.25C11.3906 7 11.5 7.10938 11.5 7.25V7.75ZM11.5 5.75C11.5 5.89063 11.3906 6 11.25 6H10.75C10.6094 6 10.5 5.89063 10.5 5.75V5.25C10.5 5.10938 10.6094 5 10.75 5H11.25C11.3906 5 11.5 5.10938 11.5 5.25V5.75ZM11.5 3.75C11.5 3.89063 11.3906 4 11.25 4H10.75C10.6094 4 10.5 3.89063 10.5 3.75V3.25C10.5 3.10938 10.6094 3 10.75 3H11.25C11.3906 3 11.5 3.10938 11.5 3.25V3.75Z" fill="black"/>
</svg>
