<svg width="16" height="16" viewBox="0 0 16 16" fill="none" xmlns="http://www.w3.org/2000/svg">
<path d="M1.375 6H14.625C14.8312 6 15 6.16875 15 6.375V14.5C15 15.3281 14.3281 16 13.5 16H2.5C1.67187 16 1 15.3281 1 14.5V6.375C1 6.16875 1.16875 6 1.375 6ZM15 4.625V3.5C15 2.67188 14.3281 2 13.5 2H12V0.375C12 0.16875 11.8312 0 11.625 0H10.375C10.1687 0 10 0.16875 10 0.375V2H6V0.375C6 0.16875 5.83125 0 5.625 0H4.375C4.16875 0 4 0.16875 4 0.375V2H2.5C1.67187 2 1 2.67188 1 3.5V4.625C1 4.83125 1.16875 5 1.375 5H14.625C14.8312 5 15 4.83125 15 4.625Z" />
</svg>
