<svg width="16" height="16" viewBox="0 0 16 16" fill="none" xmlns="http://www.w3.org/2000/svg">
<path d="M14.3571 2.28571H13.2143V1.42857C13.2143 0.642857 12.5714 0 11.7857 0H11.2143C10.4285 0 9.78568 0.642857 9.78568 1.42857V2.28571H6.35711V1.42857C6.35711 0.642857 5.71425 0 4.92854 0H4.35711C3.57139 0 2.92854 0.642857 2.92854 1.42857V2.28571H1.78568C1.16068 2.28571 0.642822 2.80357 0.642822 3.42857V14.8571C0.642822 15.4821 1.16068 16 1.78568 16H14.3571C14.9821 16 15.5 15.4821 15.5 14.8571V3.42857C15.5 2.80357 14.9821 2.28571 14.3571 2.28571ZM10.9285 1.42857C10.9285 1.26786 11.0535 1.14286 11.2143 1.14286H11.7857C11.9464 1.14286 12.0714 1.26786 12.0714 1.42857V4C12.0714 4.16072 11.9464 4.28572 11.7857 4.28572H11.2143C11.0535 4.28572 10.9285 4.16072 10.9285 4V1.42857ZM4.07139 1.42857C4.07139 1.26786 4.19639 1.14286 4.35711 1.14286H4.92854C5.08925 1.14286 5.21425 1.26786 5.21425 1.42857V4C5.21425 4.16072 5.08925 4.28572 4.92854 4.28572H4.35711C4.19639 4.28572 4.07139 4.16072 4.07139 4V1.42857ZM14.3571 14.8571H1.78568V5.71429H14.3571V14.8571ZM8.64282 9.71429V7.71429C8.64282 7.55357 8.51782 7.42857 8.35711 7.42857H7.78568C7.62497 7.42857 7.49997 7.55357 7.49997 7.71429V9.71429H5.49996C5.33925 9.71429 5.21425 9.83929 5.21425 10V10.5714C5.21425 10.7321 5.33925 10.8571 5.49996 10.8571H7.49997V12.8571C7.49997 13.0179 7.62497 13.1429 7.78568 13.1429H8.35711C8.51782 13.1429 8.64282 13.0179 8.64282 12.8571V10.8571H10.6428C10.8035 10.8571 10.9285 10.7321 10.9285 10.5714V10C10.9285 9.83929 10.8035 9.71429 10.6428 9.71429H8.64282Z" />
</svg>
