<svg width="16" height="14" viewBox="0 0 16 14" fill="none" xmlns="http://www.w3.org/2000/svg">
<path d="M1.5 0C0.65625 0 0 0.6875 0 1.5V12.5C0 13.3438 0.65625 14 1.5 14H14.5C15.3125 14 16 13.3438 16 12.5V1.5C16 0.6875 15.3125 0 14.5 0H1.5ZM1.5 1H4.8125C4.90625 1 5 1.09375 5 1.1875V1.8125C5 1.9375 4.90625 2 4.8125 2H1.1875C1.0625 2 1 1.9375 1 1.8125V1.5C1 1.25 1.21875 1 1.5 1ZM14.8125 4H1.1875C1.0625 4 1 3.9375 1 3.8125V2.6875C1 2.59375 1.0625 2.5 1.1875 2.5H5.5L6.4375 1.09375C6.46875 1.03125 6.53125 1 6.59375 1H14.5C14.75 1 15 1.25 15 1.5V3.8125C15 3.9375 14.9062 4 14.8125 4ZM8 12.25C5.90625 12.25 4.25 10.5938 4.25 8.5C4.25 6.4375 5.90625 4.75 8 4.75C10.0625 4.75 11.75 6.4375 11.75 8.5C11.75 10.5938 10.0625 12.25 8 12.25ZM8 5.75C6.46875 5.75 5.25 7 5.25 8.5C5.25 10.0312 6.46875 11.25 8 11.25C9.5 11.25 10.75 10.0312 10.75 8.5C10.75 7 9.5 5.75 8 5.75ZM6.5 9C6.21875 9 6 8.78125 6 8.5C6 7.40625 6.875 6.5 8 6.5C8.25 6.5 8.5 6.75 8.5 7C8.5 7.28125 8.25 7.5 8 7.5C7.4375 7.5 7 7.96875 7 8.5C7 8.78125 6.75 9 6.5 9Z" fill="black"/>
</svg>
