<svg width="16" height="16" viewBox="0 0 16 16" fill="none" xmlns="http://www.w3.org/2000/svg">
<path d="M8 0C6.55914 0 5.22581 0.365591 4 1.09677C2.77419 1.80645 1.7957 2.77419 1.06452 4C0.354839 5.22581 0 6.55914 0 8C0 9.44086 0.354839 10.7742 1.06452 12C1.7957 13.2258 2.77419 14.1935 4 14.9032C5.22581 15.6344 6.55914 16 8 16C9.44086 16 10.7742 15.6344 12 14.9032C13.2258 14.1935 14.1935 13.2258 14.9032 12C15.6344 10.7742 16 9.44086 16 8C16 6.55914 15.6344 5.22581 14.9032 4C14.1935 2.77419 13.2258 1.80645 12 1.09677C10.7742 0.365591 9.44086 0 8 0ZM9.83871 11.2903L7 9.22581C6.89247 9.13978 6.83871 9.03226 6.83871 8.90323V3.48387C6.83871 3.37634 6.87097 3.29032 6.93548 3.22581C7.02151 3.13979 7.11828 3.09677 7.22581 3.09677H8.77419C8.88172 3.09677 8.96774 3.13979 9.03226 3.22581C9.11828 3.29032 9.16129 3.37634 9.16129 3.48387V7.93548L11.2258 9.41935C11.3118 9.48387 11.3548 9.56989 11.3548 9.67742C11.3763 9.78495 11.3548 9.88172 11.2903 9.96774L10.3871 11.1935C10.3226 11.2796 10.2366 11.3333 10.129 11.3548C10.0215 11.3763 9.92473 11.3548 9.83871 11.2903Z" fill="black"/>
</svg>
