<svg id="icon-close" xmlns="http://www.w3.org/2000/svg" aria-hidden="true" focusable="false" viewBox="0 0 16 16" width="16" height="16">
    <title>close</title>
    <path fill="currentColor" d="M10.585 8.5L13.7122 5.37281C14.0959 4.98906 14.0959 4.36687 13.7122 3.98281L13.0172 3.28781C12.6334 2.90406 12.0113 2.90406 11.6272 3.28781L8.5 6.415L5.37281 3.28781C4.98906 2.90406 4.36688 2.90406 3.98281 3.28781L3.28781 3.98281C2.90406 4.36656 2.90406 4.98875 3.28781 5.37281L6.415 8.5L3.28781 11.6272C2.90406 12.0109 2.90406 12.6331 3.28781 13.0172L3.98281 13.7122C4.36656 14.0959 4.98906 14.0959 5.37281 13.7122L8.5 10.585L11.6272 13.7122C12.0109 14.0959 12.6334 14.0959 13.0172 13.7122L13.7122 13.0172C14.0959 12.6334 14.0959 12.0113 13.7122 11.6272L10.585 8.5Z" />
</svg>
