<svg id="icon-close" xmlns="http://www.w3.org/2000/svg" aria-hidden="true" focusable="false" viewBox="0 0 16 16" width="16" height="16">
  <title>close</title>
  <path fill="currentColor" d="M9.61001 7.66556L13.5381 3.73744C13.7334 3.54217 13.7334 3.22561 13.5381 3.03034L12.6542 2.14645C12.459 1.95118 12.1424 1.95118 11.9471 2.14645L8.01902 6.07457L4.09099 2.14653C3.89572 1.95126 3.57916 1.95126 3.38388 2.14653L2.5 3.03042C2.30473 3.22569 2.30473 3.54225 2.5 3.73752L6.42803 7.66556L2.75475 11.3388C2.55948 11.5341 2.55948 11.8507 2.75475 12.0459L3.63863 12.9298C3.8339 13.1251 4.15047 13.1251 4.34574 12.9298L8.01902 9.25655L11.6924 12.9299C11.8877 13.1252 12.2042 13.1252 12.3995 12.9299L13.2834 12.046C13.4787 11.8508 13.4787 11.5342 13.2834 11.3389L9.61001 7.66556Z" />
</svg>
