<svg width="16" height="16" viewBox="0 0 16 16" fill="none" xmlns="http://www.w3.org/2000/svg">
<path d="M11.4999 10.2578C11.4999 8.375 9.87486 7.74219 8.43736 7.1875C7.32798 6.75781 6.37486 6.39063 6.37486 5.5625C6.37486 4.85156 7.06236 4.35938 8.05455 4.35938C9.22642 4.35938 10.1717 5.19531 10.1795 5.20312C10.242 5.25 10.3124 5.27344 10.3905 5.25781C10.4686 5.25 10.5311 5.20313 10.5702 5.13281L11.203 3.99219C11.2577 3.89844 11.242 3.78125 11.1639 3.69531C11.1327 3.66406 10.2889 2.80469 8.70298 2.625V1.25C8.70298 1.10938 8.59361 1 8.45298 1H7.3983C7.26548 1 7.1483 1.10938 7.1483 1.25V2.65625C5.51548 2.96875 4.39048 4.15625 4.39048 5.59375C4.39048 7.55469 6.14048 8.25781 7.54673 8.8125C8.60142 9.23438 9.5233 9.60156 9.5233 10.3516C9.5233 11.2344 8.69517 11.6406 7.92955 11.6406C6.54673 11.6406 5.45298 10.5938 5.43736 10.5859C5.39048 10.5313 5.32017 10.5078 5.24986 10.5156C5.17955 10.5234 5.10923 10.5547 5.07017 10.6094L4.26548 11.6641C4.19517 11.7578 4.20298 11.8906 4.28111 11.9844C4.32017 12.0313 5.32017 13.125 7.1483 13.3828V14.75C7.1483 14.8906 7.26548 15 7.3983 15H8.45298C8.59361 15 8.70298 14.8906 8.70298 14.75V13.3828C10.3592 13.1094 11.4999 11.8516 11.4999 10.2578Z" fill="black"/>
</svg>
