<svg width="16" height="16" viewBox="0 0 16 16" fill="none" xmlns="http://www.w3.org/2000/svg">
<path d="M16 6.05336C15.7321 6.348 15.4286 6.60693 15.1071 6.83014C13.6161 7.83907 12.1161 8.85693 10.6607 9.9105C9.91072 10.4641 8.98214 11.1426 8.00893 11.1426H8H7.99107C7.01786 11.1426 6.08929 10.4641 5.33929 9.9105C3.88393 8.848 2.38393 7.83907 0.901786 6.83014C0.571429 6.60693 0.267857 6.348 0 6.05336V13.1426C0 13.9284 0.642857 14.5712 1.42857 14.5712H14.5714C15.3571 14.5712 16 13.9284 16 13.1426V6.05336ZM16 3.42836C16 2.64264 15.3482 1.99979 14.5714 1.99979H1.42857C0.473214 1.99979 0 2.74979 0 3.62479C0 4.43729 0.901786 5.44621 1.53571 5.87479C2.91964 6.83907 4.32143 7.80336 5.70536 8.77657C6.28571 9.17836 7.26786 9.99979 7.99107 9.99979H8H8.00893C8.73214 9.99979 9.71429 9.17836 10.2946 8.77657C11.6786 7.80336 13.0804 6.83907 14.4732 5.87479C15.2589 5.33014 16 4.42836 16 3.42836Z" />
</svg>
