<svg width="16" height="16" viewBox="0 0 16 16" fill="none" xmlns="http://www.w3.org/2000/svg">
<path d="M14.1071 4.25L10.4643 0.607143C10.375 0.517857 10.2679 0.437501 10.1429 0.357143V4.57143H14.3571C14.2768 4.44643 14.1964 4.33929 14.1071 4.25ZM9.85714 5.71429C9.38393 5.71429 9 5.33036 9 4.85714V0H1.85714C1.38393 0 1 0.383929 1 0.857143V15.1429C1 15.6161 1.38393 16 1.85714 16H13.8571C14.3304 16 14.7143 15.6161 14.7143 15.1429V5.71429H9.85714ZM11.2857 12.2857C11.2857 12.4464 11.1607 12.5714 11 12.5714H4.71429C4.55357 12.5714 4.42857 12.4464 4.42857 12.2857V11.7143C4.42857 11.5536 4.55357 11.4286 4.71429 11.4286H11C11.1607 11.4286 11.2857 11.5536 11.2857 11.7143V12.2857ZM11.2857 10C11.2857 10.1607 11.1607 10.2857 11 10.2857H4.71429C4.55357 10.2857 4.42857 10.1607 4.42857 10V9.42857C4.42857 9.26786 4.55357 9.14286 4.71429 9.14286H11C11.1607 9.14286 11.2857 9.26786 11.2857 9.42857V10ZM11.2857 7.71429C11.2857 7.875 11.1607 8 11 8H4.71429C4.55357 8 4.42857 7.875 4.42857 7.71429V7.14286C4.42857 6.98214 4.55357 6.85714 4.71429 6.85714H11C11.1607 6.85714 11.2857 6.98214 11.2857 7.14286V7.71429Z" fill="black"/>
</svg>
