<svg id="icon-file-word" role="img" xmlns="http://www.w3.org/2000/svg" viewBox="0 0 16 16" width="16" height="16">
    <title>word document</title>
    <path fill="currentColor" d="M13.5594 3.0625L10.9375 0.440625C10.6562 0.159375 10.275 0 9.87813 0H3.5C2.67188 0.003125 2 0.675 2 1.50312V14.5031C2 15.3313 2.67188 16.0031 3.5 16.0031H12.5C13.3281 16.0031 14 15.3313 14 14.5031V4.125C14 3.72813 13.8406 3.34375 13.5594 3.0625ZM12.3781 4.00313H10V1.625L12.3781 4.00313ZM3.5 14.5031V1.50312H8.5V4.75313C8.5 5.16875 8.83437 5.50313 9.25 5.50313H12.5V14.5031H3.5ZM10.3781 8.00313C10.2 8.00313 10.0469 8.12813 10.0125 8.3C9.36875 11.3531 9.375 11.2813 9.35625 11.5344C9.35 11.4969 9.34375 11.4531 9.33437 11.4C9.30937 11.2406 9.34375 11.4063 8.59688 8.29063C8.55625 8.12188 8.40625 8.00313 8.23125 8.00313H7.81563C7.64375 8.00313 7.49375 8.12188 7.45 8.2875C6.6875 11.3813 6.7 11.2937 6.675 11.5281C6.67188 11.4937 6.66875 11.45 6.65938 11.3969C6.6375 11.2344 6.21875 9.10625 6.0625 8.30313C6.02812 8.12813 5.875 8 5.69375 8H5.16875C4.925 8 4.74687 8.22813 4.80312 8.4625C5.05312 9.48125 5.6375 11.8844 5.84063 12.7125C5.88125 12.8813 6.03125 12.9969 6.20625 12.9969H6.99375C7.16563 12.9969 7.31562 12.8813 7.35625 12.7125L7.91563 10.4812C7.9625 10.2875 7.99375 10.1063 8.00938 9.94063L8.1 10.4812C8.10312 10.4937 8.49375 12.0594 8.65938 12.7125C8.7 12.8781 8.85 12.9969 9.02187 12.9969H9.79375C9.96562 12.9969 10.1156 12.8813 10.1562 12.7125C10.8062 10.1531 11.1 8.99375 11.2344 8.4625C11.2937 8.225 11.1156 7.99688 10.8719 7.99688H10.3781V8.00313Z" />
</svg>
