<svg width="16" height="16" viewBox="0 0 16 16" fill="none" xmlns="http://www.w3.org/2000/svg">
<path d="M9 4.25V0H2.75C2.54167 0 2.36458 0.0729167 2.21875 0.21875C2.07292 0.364583 2 0.541667 2 0.75V15.25C2 15.4583 2.07292 15.6354 2.21875 15.7812C2.36458 15.9271 2.54167 16 2.75 16H13.25C13.4583 16 13.6354 15.9271 13.7812 15.7812C13.9271 15.6354 14 15.4583 14 15.25V5H9.75C9.54167 5 9.36458 4.92708 9.21875 4.78125C9.07292 4.63542 9 4.45833 9 4.25ZM10.7812 8H11.5312C11.6562 8 11.75 8.05208 11.8125 8.15625C11.8958 8.23958 11.9271 8.34375 11.9062 8.46875L10.7188 13.7188C10.6979 13.8021 10.6458 13.875 10.5625 13.9375C10.5 13.9792 10.4271 14 10.3438 14H9.15625C9.07292 14 8.98958 13.9792 8.90625 13.9375C8.84375 13.875 8.80208 13.8021 8.78125 13.7188L8.4375 12.2812C8.20833 11.3854 8.07292 10.8125 8.03125 10.5625L8 10.25H7.96875C7.96875 10.4375 7.9375 10.6458 7.875 10.875L7.1875 13.7188C7.16667 13.8021 7.11458 13.875 7.03125 13.9375C6.96875 13.9792 6.89583 14 6.8125 14H5.65625C5.57292 14 5.48958 13.9792 5.40625 13.9375C5.34375 13.875 5.30208 13.8021 5.28125 13.7188L4.125 8.46875C4.08333 8.34375 4.09375 8.23958 4.15625 8.15625C4.23958 8.05208 4.34375 8 4.46875 8H5.25C5.33333 8 5.40625 8.03125 5.46875 8.09375C5.55208 8.13542 5.59375 8.20833 5.59375 8.3125C6.01042 10.2917 6.23958 11.5625 6.28125 12.125C6.30208 11.9375 6.51042 11.0521 6.90625 9.46875L7.1875 8.28125C7.20833 8.19792 7.25 8.13542 7.3125 8.09375C7.375 8.03125 7.45833 8 7.5625 8H8.46875C8.55208 8 8.625 8.03125 8.6875 8.09375C8.75 8.13542 8.79167 8.19792 8.8125 8.28125C9.39583 10.6771 9.70833 12.0312 9.75 12.3438V12.25C9.75 12.0208 9.77083 11.7292 9.8125 11.375C9.91667 10.75 10.125 9.71875 10.4375 8.28125C10.4375 8.19792 10.4688 8.13542 10.5312 8.09375C10.6146 8.03125 10.6979 8 10.7812 8ZM14 3.8125V4H10V0H10.1875C10.3958 0 10.5729 0.0729167 10.7188 0.21875L13.7812 3.28125C13.9271 3.42708 14 3.60417 14 3.8125Z" fill="black"/>
</svg>
