<svg width="16" height="16" viewBox="0 0 16 16" fill="none" xmlns="http://www.w3.org/2000/svg">
<path d="M7.6875 8C7.60417 7.77083 7.5625 7.46875 7.5625 7.09375C7.5625 6.71875 7.58333 6.53125 7.625 6.53125C7.75 6.53125 7.8125 6.73958 7.8125 7.15625C7.8125 7.55208 7.77083 7.83333 7.6875 8ZM7.625 9.46875C7.3125 10.2812 7.02083 10.9375 6.75 11.4375L7.1875 11.25C7.83333 11 8.34375 10.8333 8.71875 10.75C8.28125 10.4375 7.91667 10.0104 7.625 9.46875ZM4.6875 13.375C4.6875 13.3958 4.73958 13.375 4.84375 13.3125C4.94792 13.2292 5.0625 13.1042 5.1875 12.9375C5.375 12.7083 5.57292 12.4375 5.78125 12.125L5.65625 12.2188C5.11458 12.7188 4.79167 13.1042 4.6875 13.375ZM9.75 5H14V15.25C14 15.4583 13.9271 15.6354 13.7812 15.7812C13.6354 15.9271 13.4583 16 13.25 16H2.75C2.54167 16 2.36458 15.9271 2.21875 15.7812C2.07292 15.6354 2 15.4583 2 15.25V0.75C2 0.541667 2.07292 0.364583 2.21875 0.21875C2.36458 0.0729167 2.54167 0 2.75 0H9V4.25C9 4.45833 9.07292 4.63542 9.21875 4.78125C9.36458 4.92708 9.54167 5 9.75 5ZM9.5 10.375C8.89583 10 8.44792 9.4375 8.15625 8.6875L8.1875 8.65625C8.29167 8.21875 8.35417 7.88542 8.375 7.65625C8.4375 7.23958 8.4375 6.91667 8.375 6.6875C8.3125 6.39583 8.16667 6.19792 7.9375 6.09375C7.72917 5.98958 7.51042 5.97917 7.28125 6.0625C7.05208 6.125 6.91667 6.26042 6.875 6.46875C6.79167 6.73958 6.78125 7.08333 6.84375 7.5C6.88542 7.85417 6.97917 8.3125 7.125 8.875C6.64583 10 6.21875 10.8958 5.84375 11.5625C5.23958 11.8542 4.77083 12.1667 4.4375 12.5C3.97917 12.9583 3.875 13.3542 4.125 13.6875C4.20833 13.7917 4.3125 13.875 4.4375 13.9375C4.58333 13.9792 4.70833 14 4.8125 14C5.08333 14 5.36458 13.8542 5.65625 13.5625C5.96875 13.25 6.32292 12.75 6.71875 12.0625L7.1875 11.9062C8.10417 11.5938 8.77083 11.4062 9.1875 11.3438C9.52083 11.5312 9.86458 11.6771 10.2188 11.7812C10.5938 11.8854 10.9167 11.9375 11.1875 11.9375C11.4583 11.9375 11.6667 11.8542 11.8125 11.6875C11.9583 11.5208 12.0208 11.3333 12 11.125C12 10.8958 11.9375 10.7188 11.8125 10.5938C11.4792 10.2812 10.7083 10.2083 9.5 10.375ZM13.7812 3.28125L10.7188 0.21875C10.5729 0.0729167 10.3958 0 10.1875 0H10V4H14V3.8125C14 3.60417 13.9271 3.42708 13.7812 3.28125ZM11.4688 11.25C11.5104 11.2292 11.5 11.1875 11.4375 11.125C11.375 11.0625 11.25 11.0208 11.0625 11C10.8125 10.9583 10.5 10.9479 10.125 10.9688C10.4792 11.1146 10.7708 11.2188 11 11.2812C11.1667 11.3021 11.2917 11.3021 11.375 11.2812L11.4688 11.25Z" fill="black"/>
</svg>
