<svg id="icon-file-pdf" role="img" xmlns="http://www.w3.org/2000/svg" viewBox="0 0 16 16" width="16" height="16">
    <title>pdf document</title>
    <path fill="currentColor" d="M13.5571 3.0619L10.9358 0.440539C10.6546 0.159344 10.2734 0 9.87659 0H3.49971C2.67174 0.00312439 2 0.674868 2 1.50283V14.5003C2 15.3283 2.67174 16 3.49971 16H12.4979C13.3259 16 13.9977 15.3283 13.9977 14.5003V4.12419C13.9977 3.7274 13.8383 3.3431 13.5571 3.0619ZM12.3761 4.00234H9.99844V1.62468L12.3761 4.00234ZM3.49971 14.5003V1.50283H8.49873V4.7522C8.49873 5.16774 8.83304 5.50205 9.24858 5.50205H12.4979V14.5003H3.49971ZM11.3169 10.0105C10.9358 9.63562 9.84847 9.73872 9.30482 9.80746C8.76743 9.4794 8.40812 9.02636 8.15505 8.36087C8.2769 7.85784 8.47061 7.09237 8.32376 6.61121C8.19254 5.79262 7.14275 5.87385 6.99277 6.42687C6.8553 6.9299 6.98028 7.62976 7.21148 8.52334C6.89904 9.27007 6.43351 10.273 6.10545 10.8479C5.48057 11.1697 4.63699 11.6665 4.51201 12.2914C4.4089 12.785 5.32435 14.016 6.88967 11.3165C7.58953 11.0853 8.35188 10.801 9.02675 10.6885C9.61726 11.0072 10.3078 11.2197 10.7702 11.2197C11.5669 11.2197 11.645 10.3386 11.3169 10.0105ZM5.12751 12.4413C5.28686 12.0133 5.89299 11.5196 6.07733 11.3478C5.48369 12.2945 5.12751 12.4632 5.12751 12.4413ZM7.67702 6.48623C7.90822 6.48623 7.88635 7.48916 7.73326 7.76099C7.59578 7.32669 7.59891 6.48623 7.67702 6.48623ZM6.91467 10.7542C7.21773 10.2261 7.47706 9.59813 7.68639 9.04511C7.94571 9.51689 8.2769 9.89494 8.62683 10.1543C7.97696 10.2886 7.41144 10.5636 6.91467 10.7542ZM11.0264 10.5979C11.0264 10.5979 10.8701 10.7854 9.86096 10.3542C10.9576 10.273 11.1388 10.5229 11.0264 10.5979Z" />
</svg>
