<svg role="img" aria-hidden="true" focusable="false" width="16" height="16" viewBox="0 0 16 16" fill="currentColor" xmlns="http://www.w3.org/2000/svg"><!-- Font Awesome Free 5.15.4 by @fontawesome - https://fontawesome.com License - https://fontawesome.com/license/free (Icons: CC BY 4.0, Fonts: SIL OFL 1.1, Code: MIT License) --><path d="M14.8571 0H1.13929C0.510714 0 0 0.517857 0 1.15357V14.8464C0 15.4821 0.510714 16 1.13929 16H14.8571C15.4857 16 16 15.4821 16 14.8464V1.15357C16 0.517857 15.4857 0 14.8571 0ZM4.83571 13.7143H2.46429V6.07857H4.83929V13.7143H4.83571ZM3.65 5.03571C2.88929 5.03571 2.275 4.41786 2.275 3.66071C2.275 2.90357 2.88929 2.28571 3.65 2.28571C4.40714 2.28571 5.025 2.90357 5.025 3.66071C5.025 4.42143 4.41071 5.03571 3.65 5.03571V5.03571ZM13.725 13.7143H11.3536V10C11.3536 9.11429 11.3357 7.975 10.1214 7.975C8.88571 7.975 8.69643 8.93929 8.69643 9.93572V13.7143H6.325V6.07857H8.6V7.12143H8.63214C8.95 6.52143 9.725 5.88929 10.8786 5.88929C13.2786 5.88929 13.725 7.47143 13.725 9.52857V13.7143V13.7143Z"/></svg>
