<svg id="icon-map-pin" xmlns="http://www.w3.org/2000/svg" aria-hidden="true" focusable="false" viewBox="0 0 16 16" width="16" height="16">
    <title>map pin</title>
    <path fill="currentColor" d="M7.375 15.6875C6.83333 14.8958 6.13542 13.8958 5.28125 12.6875C4.23958 11.1875 3.55208 10.1771 3.21875 9.65625C2.73958 8.90625 2.41667 8.28125 2.25 7.78125C2.08333 7.26042 2 6.66667 2 6C2 4.91667 2.27083 3.91667 2.8125 3C3.35417 2.08333 4.08333 1.35417 5 0.8125C5.91667 0.270833 6.91667 0 8 0C9.08333 0 10.0833 0.270833 11 0.8125C11.9167 1.35417 12.6458 2.08333 13.1875 3C13.7292 3.91667 14 4.91667 14 6C14 6.66667 13.9167 7.26042 13.75 7.78125C13.5833 8.28125 13.2604 8.90625 12.7812 9.65625C12.4479 10.1771 11.7604 11.1875 10.7188 12.6875L8.625 15.6875C8.47917 15.8958 8.27083 16 8 16C7.72917 16 7.52083 15.8958 7.375 15.6875ZM8 8.5C8.6875 8.5 9.27083 8.26042 9.75 7.78125C10.25 7.28125 10.5 6.6875 10.5 6C10.5 5.3125 10.25 4.72917 9.75 4.25C9.27083 3.75 8.6875 3.5 8 3.5C7.3125 3.5 6.71875 3.75 6.21875 4.25C5.73958 4.72917 5.5 5.3125 5.5 6C5.5 6.6875 5.73958 7.28125 6.21875 7.78125C6.71875 8.26042 7.3125 8.5 8 8.5Z" />
</svg>
