<svg width="16" height="16" viewBox="0 0 16 16" fill="none" xmlns="http://www.w3.org/2000/svg">
<path fill-rule="evenodd" clip-rule="evenodd" d="M16 2.5C16 3.05229 15.5523 3.5 15 3.5L1 3.5C0.447715 3.5 -1.79416e-07 3.05228 -1.31134e-07 2.5L-8.74228e-08 2C-3.91405e-08 1.44772 0.447715 1 1 1L15 1C15.5523 1 16 1.44772 16 2L16 2.5Z" fill="#00050A"/>
<path fill-rule="evenodd" clip-rule="evenodd" d="M16 8C16 8.55229 15.5523 9 15 9L1 9C0.447715 9 -1.79416e-07 8.55229 -1.31134e-07 8L-8.74228e-08 7.5C-3.91405e-08 6.94772 0.447715 6.5 1 6.5L15 6.5C15.5523 6.5 16 6.94772 16 7.5L16 8Z" fill="#00050A"/>
<path fill-rule="evenodd" clip-rule="evenodd" d="M16 13.5C16 14.0523 15.5523 14.5 15 14.5L8 14.5L1 14.5C0.447715 14.5 -1.79416e-07 14.0523 -1.31134e-07 13.5L-8.74228e-08 13C-3.91405e-08 12.4477 0.447715 12 1 12L8 12L15 12C15.5523 12 16 12.4477 16 13L16 13.5Z" fill="#00050A"/>
</svg>
