<svg id="icon-paper-airplane" role="img" xmlns="http://www.w3.org/2000/svg" viewBox="0 0 16 16" width="16" height="16">
    <title>subscribe</title>
    <path fill="currentColor" d="M13.0475 1.1775L1.67222 7.74017C0.715159 8.28706 0.797193 9.68163 1.80894 10.0918L4.95355 11.377V13.6739C4.95355 14.9591 6.56688 15.4787 7.30518 14.4669L8.50834 12.8536L11.5709 14.1114C11.735 14.1935 11.8991 14.2208 12.0631 14.2208C12.2819 14.2208 12.5006 14.1661 12.7194 14.0567C13.0749 13.838 13.2936 13.5099 13.3757 13.0997L14.989 2.51738C15.153 1.4236 13.9772 0.630611 13.0475 1.1775ZM6.26609 13.6739V11.9239L7.25049 12.334L6.26609 13.6739ZM12.0631 12.9083L7.85207 11.1582L11.7076 5.63465C11.9811 5.19714 11.4342 4.70494 11.0514 5.06042L5.25434 10.0918L2.32848 8.8613L13.7038 2.29862L12.0631 12.9083Z" />
</svg>
