<svg width="17" height="16" viewBox="0 0 17 16" fill="none" xmlns="http://www.w3.org/2000/svg">
<path d="M15.9059 0.771335L12.6537 0.0208469C12.487 -0.0208469 12.3202 0 12.1534 0.0833876C11.9866 0.166775 11.872 0.281433 11.8094 0.427362L10.3085 3.92964C10.2459 4.09642 10.2355 4.26319 10.2772 4.42997C10.3189 4.5759 10.4023 4.70098 10.5274 4.80521L12.4036 6.36873C11.8407 7.57785 11.0798 8.66189 10.1208 9.62085C9.18274 10.5798 8.0987 11.3407 6.86873 11.9036L5.33648 10.0274C5.23225 9.88143 5.09674 9.79805 4.92997 9.7772C4.76319 9.73551 4.60684 9.74593 4.46091 9.80847L0.958632 11.3094C0.791857 11.372 0.666775 11.4866 0.583388 11.6534C0.5 11.8202 0.479153 11.987 0.520847 12.1537L1.27134 15.4059C1.29218 15.5935 1.37557 15.7394 1.5215 15.8436C1.66743 15.9479 1.82378 16 1.99055 16C4.61726 16 7.05635 15.3433 9.30782 14.03C11.4967 12.7375 13.2375 10.9967 14.53 8.80782C15.8433 6.55635 16.5 4.11726 16.5 1.49055C16.5 1.32378 16.4479 1.16743 16.3436 1.0215C16.2394 0.87557 16.0935 0.792182 15.9059 0.771335Z" fill="black"/>
</svg>
