<svg id="icon-star" xmlns="http://www.w3.org/2000/svg" aria-hidden="true" focusable="false" viewBox="0 0 16 16" width="16" height="16">
    <title>star</title>
    <path fill="currentColor" d="M15 6.17428C15 5.92187 14.7308 5.82091 14.5288 5.78726L10.3053 5.17308L8.41226 1.34495C8.33654 1.1851 8.19351 1 8 1C7.80649 1 7.66346 1.1851 7.58774 1.34495L5.69471 5.17308L1.47115 5.78726C1.26082 5.82091 1 5.92187 1 6.17428C1 6.32572 1.10938 6.46875 1.21034 6.57812L4.27284 9.55649L3.54928 13.7632C3.54087 13.8221 3.53245 13.8726 3.53245 13.9315C3.53245 14.1502 3.64183 14.3522 3.88582 14.3522C4.00361 14.3522 4.11298 14.3101 4.22236 14.2512L8 12.2656L11.7776 14.2512C11.8786 14.3101 11.9964 14.3522 12.1142 14.3522C12.3582 14.3522 12.4591 14.1502 12.4591 13.9315C12.4591 13.8726 12.4591 13.8221 12.4507 13.7632L11.7272 9.55649L14.7812 6.57812C14.8906 6.46875 15 6.32572 15 6.17428Z" />
</svg>
