<svg id="icon-time" role="img" xmlns="http://www.w3.org/2000/svg" viewBox="0 0 16 16" width="16" height="16">
    <title>time</title>
    <path fill="currentColor" d="M8 0C3.58065 0 0 3.58065 0 8C0 12.4194 3.58065 16 8 16C12.4194 16 16 12.4194 16 8C16 3.58065 12.4194 0 8 0ZM8 14.4516C4.43548 14.4516 1.54839 11.5645 1.54839 8C1.54839 4.43548 4.43548 1.54839 8 1.54839C11.5645 1.54839 14.4516 4.43548 14.4516 8C14.4516 11.5645 11.5645 14.4516 8 14.4516ZM9.99355 11.0839L7.25484 9.09355C7.15484 9.01935 7.09677 8.90323 7.09677 8.78065V3.48387C7.09677 3.27097 7.27097 3.09677 7.48387 3.09677H8.51613C8.72903 3.09677 8.90323 3.27097 8.90323 3.48387V8.05484L11.0581 9.62258C11.2323 9.74839 11.2677 9.99032 11.1419 10.1645L10.5355 11C10.4097 11.171 10.1677 11.2097 9.99355 11.0839Z" />
</svg>
