<svg width="17" height="16" viewBox="0 0 17 16" fill="none" xmlns="http://www.w3.org/2000/svg">
<path d="M14.0982 11.9554C12.8571 13.7054 10.8125 14.8571 8.5 14.8571C6.1875 14.8571 4.14286 13.7054 2.90179 11.9554C3.13393 10.2857 3.8125 8.80357 5.33036 8.59821C6.11607 9.45536 7.25 10 8.5 10C9.75 10 10.8839 9.45536 11.6696 8.59821C13.1875 8.80357 13.8661 10.2857 14.0982 11.9554ZM11.9286 5.71429C11.9286 7.60714 10.3929 9.14286 8.5 9.14286C6.60714 9.14286 5.07143 7.60714 5.07143 5.71429C5.07143 3.82143 6.60714 2.28571 8.5 2.28571C10.3929 2.28571 11.9286 3.82143 11.9286 5.71429ZM16.5 8C16.5 3.58036 12.9196 0 8.5 0C4.08036 0 0.5 3.58036 0.5 8C0.5 12.4107 4.08036 16 8.5 16C12.9286 16 16.5 12.4018 16.5 8Z" fill="black"/>
</svg>
