<svg id="icon-warning" role="img" xmlns="http://www.w3.org/2000/svg" viewBox="0 0 16 16" width="16" height="16">
    <title>warning</title>
    <path fill="currentColor" d="M16 8C16 9.44086 15.6344 10.7742 14.9032 12C14.1935 13.2258 13.2258 14.1935 12 14.9032C10.7742 15.6344 9.44086 16 8 16C6.55914 16 5.22581 15.6344 4 14.9032C2.77419 14.1935 1.7957 13.2258 1.06452 12C0.354839 10.7742 0 9.44086 0 8C0 6.55914 0.354839 5.22581 1.06452 4C1.7957 2.77419 2.77419 1.80645 4 1.09677C5.22581 0.365591 6.55914 0 8 0C9.44086 0 10.7742 0.365591 12 1.09677C13.2258 1.80645 14.1935 2.77419 14.9032 4C15.6344 5.22581 16 6.55914 16 8ZM8 9.6129C7.5914 9.6129 7.23656 9.76344 6.93548 10.0645C6.65591 10.3441 6.51613 10.6882 6.51613 11.0968C6.51613 11.5054 6.65591 11.8602 6.93548 12.1613C7.23656 12.4409 7.5914 12.5806 8 12.5806C8.4086 12.5806 8.75269 12.4409 9.03226 12.1613C9.33333 11.8602 9.48387 11.5054 9.48387 11.0968C9.48387 10.6882 9.33333 10.3441 9.03226 10.0645C8.75269 9.76344 8.4086 9.6129 8 9.6129ZM6.58065 4.29032L6.83871 8.67742C6.83871 8.76344 6.87097 8.84946 6.93548 8.93548C7.02151 9 7.11828 9.03226 7.22581 9.03226H8.77419C8.88172 9.03226 8.96774 9 9.03226 8.93548C9.11828 8.84946 9.16129 8.76344 9.16129 8.67742L9.41935 4.29032C9.41935 4.16129 9.37634 4.06452 9.29032 4C9.22581 3.91398 9.13978 3.87097 9.03226 3.87097H6.96774C6.86022 3.87097 6.76344 3.91398 6.67742 4C6.6129 4.06452 6.58065 4.16129 6.58065 4.29032Z" />
</svg>
