<svg width="100" height="150" viewBox="0 0 100 150" fill="none" xmlns="http://www.w3.org/2000/svg">
<rect width="100" height="150" fill="#CED4DA"/>
<rect x="1" y="10" width="98" height="120" fill="white"/>
<rect x="10" y="20" width="80" height="5" fill="#CED4DA"/>
<rect x="10" y="35" width="50" height="1" fill="#CED4DA"/>
<rect x="10" y="38" width="50" height="1" fill="#CED4DA"/>
<rect x="10" y="41" width="50" height="1" fill="#CED4DA"/>
<rect x="10" y="44" width="50" height="1" fill="#CED4DA"/>
<rect x="10" y="100" width="80" height="1" fill="#CED4DA"/>
<rect x="10" y="103" width="28" height="1" fill="#CED4DA"/>
<rect x="10" y="114" width="50" height="1" fill="#CED4DA"/>
<rect x="10" y="117" width="50" height="1" fill="#CED4DA"/>
<rect x="10" y="120" width="50" height="1" fill="#CED4DA"/>
<rect x="10" y="123" width="50" height="1" fill="#CED4DA"/>
<rect x="10" y="107" width="50" height="1" fill="#CED4DA"/>
<rect x="10" y="110" width="50" height="1" fill="#CED4DA"/>
<rect x="10" y="27" width="50" height="5" fill="#CED4DA"/>
<rect x="10" y="48" width="80" height="50" fill="#343A40"/>
</svg>
