<svg width="100" height="150" viewBox="0 0 100 150" fill="none" xmlns="http://www.w3.org/2000/svg">
<rect width="100" height="150" fill="#CED4DA"/>
<rect x="1" y="10" width="98" height="120" fill="white"/>
<rect x="10" y="20" width="80" height="5" fill="#CED4DA"/>
<rect x="10" y="35" width="50" height="1" fill="#CED4DA"/>
<rect x="10" y="38" width="50" height="1" fill="#CED4DA"/>
<rect x="10" y="41" width="50" height="1" fill="#CED4DA"/>
<rect x="10" y="44" width="50" height="1" fill="#CED4DA"/>
<rect x="10" y="48" width="38" height="1" fill="#CED4DA"/>
<rect x="10" y="51" width="38" height="1" fill="#CED4DA"/>
<rect x="10" y="54" width="38" height="1" fill="#CED4DA"/>
<rect x="10" y="57" width="38" height="1" fill="#CED4DA"/>
<rect x="10" y="61" width="38" height="1" fill="#CED4DA"/>
<rect x="10" y="64" width="38" height="1" fill="#CED4DA"/>
<rect x="10" y="67" width="38" height="1" fill="#CED4DA"/>
<rect x="10" y="70" width="38" height="1" fill="#CED4DA"/>
<rect x="10" y="74" width="38" height="1" fill="#CED4DA"/>
<rect x="10" y="77" width="38" height="1" fill="#CED4DA"/>
<rect x="10" y="80" width="38" height="1" fill="#CED4DA"/>
<rect x="10" y="83" width="38" height="1" fill="#CED4DA"/>
<rect x="10" y="87" width="38" height="1" fill="#CED4DA"/>
<rect x="10" y="90" width="38" height="1" fill="#CED4DA"/>
<rect x="10" y="93" width="38" height="1" fill="#CED4DA"/>
<rect x="10" y="96" width="38" height="1" fill="#CED4DA"/>
<rect x="10" y="100" width="50" height="1" fill="#CED4DA"/>
<rect x="10" y="103" width="50" height="1" fill="#CED4DA"/>
<rect x="10" y="106" width="50" height="1" fill="#CED4DA"/>
<rect x="10" y="109" width="50" height="1" fill="#CED4DA"/>
<rect x="10" y="113" width="50" height="1" fill="#CED4DA"/>
<rect x="10" y="116" width="50" height="1" fill="#CED4DA"/>
<rect x="10" y="119" width="50" height="1" fill="#CED4DA"/>
<rect x="10" y="122" width="50" height="1" fill="#CED4DA"/>
<rect x="10" y="27" width="50" height="5" fill="#CED4DA"/>
<rect x="52" y="48" width="38" height="43" fill="#343A40"/>
<rect x="52" y="93" width="38" height="1" fill="#CED4DA"/>
<rect x="52" y="96" width="15" height="1" fill="#CED4DA"/>
</svg>
