<svg width="276" height="50" viewBox="0 0 276 50" fill="none" xmlns="http://www.w3.org/2000/svg">
<g clip-path="url(#clip0)">
<path d="M25.7485 20.6186H0V38.9175H33.988V50H52.2695V30.4124H86V12.3711H43.7725V0H25.7485V20.6186Z" fill="white"/>
<path d="M39.6907 18.0412H86.0825V24.7423C86.0825 24.7423 51.524 24.7423 45.6073 24.7423C39.6907 24.7423 39.6907 19.1578 39.6907 18.0412Z" fill="#418FDE"/>
<path d="M46.3918 26.2887V50H39.6907C39.6907 50 39.6907 38.1219 39.6907 32.2053C39.6907 26.2887 45.2752 26.2887 46.3918 26.2887Z" fill="#418FDE"/>
<path d="M31.4433 24.7423L31.4433 2.92912e-07L38.1443 0C38.1443 0 38.1443 12.909 38.1443 18.8256C38.1443 24.7423 32.5599 24.7423 31.4433 24.7423Z" fill="#418FDE"/>
<path d="M38.1443 32.9896L0 32.9897L5.85818e-07 26.2887C5.85818e-07 26.2887 26.3183 26.2887 32.2313 26.2887C38.1443 26.2887 38.1443 31.8731 38.1443 32.9896Z" fill="#418FDE"/>
<path d="M39.6907 0H42.268V13.9175H86.0825V16.4948H39.6907V0Z" fill="#FFB81C"/>
<path d="M86.0825 26.8041V29.3814L50.5155 29.3814V50H47.9381V26.8041L86.0825 26.8041Z" fill="#FFB81C"/>
<path d="M27.3196 0H29.8969V24.7423H0V22.1649H27.3196V0Z" fill="#FFB81C"/>
<path d="M0 34.5361H38.1443V50H35.567V37.1134H0V34.5361Z" fill="#FFB81C"/>
<path d="M86.0738 31C85.7631 41.5461 77.1162 50 66.4949 50H52.0619V31C52.5 31 86.0738 31 86.0738 31Z" fill="#046A38"/>
<path d="M43.8144 12.3711V1.84759e-06L86.0825 0V12.3711L43.8144 12.3711Z" fill="#046A38"/>
<path d="M4.95696e-07 50L0 38.6598H34.0206V50H4.95696e-07Z" fill="#046A38"/>
<path d="M4.95696e-07 20.6186C4.95696e-07 9.23125 9.23124 2.78149e-06 20.6186 2.78149e-06H25.7732V20.6186H4.95696e-07Z" fill="#046A38"/>
</g>
<path d="M101.26 21.6243H102.76C104.161 21.6243 105.209 21.35 105.905 20.8013C106.6 20.2428 106.948 19.4344 106.948 18.3762C106.948 17.3082 106.654 16.5195 106.066 16.01C105.488 15.5005 104.577 15.2457 103.333 15.2457H101.26V21.6243ZM111.549 18.2146C111.549 20.5269 110.823 22.2955 109.373 23.5203C107.933 24.745 105.88 25.3574 103.215 25.3574H101.26V33H96.7043V11.5126H103.568C106.174 11.5126 108.153 12.076 109.506 13.2028C110.868 14.3198 111.549 15.9904 111.549 18.2146ZM118.372 24.7548C118.372 26.3813 118.637 27.611 119.166 28.4438C119.705 29.2767 120.577 29.6931 121.782 29.6931C122.977 29.6931 123.835 29.2816 124.354 28.4585C124.883 27.6257 125.148 26.3911 125.148 24.7548C125.148 23.1283 124.883 21.9085 124.354 21.0952C123.825 20.282 122.958 19.8753 121.753 19.8753C120.557 19.8753 119.695 20.282 119.166 21.0952C118.637 21.8987 118.372 23.1185 118.372 24.7548ZM129.733 24.7548C129.733 27.4297 129.028 29.5216 127.617 31.0306C126.206 32.5395 124.241 33.2939 121.723 33.2939C120.146 33.2939 118.754 32.951 117.549 32.2651C116.344 31.5695 115.418 30.575 114.771 29.2816C114.125 27.9882 113.801 26.4793 113.801 24.7548C113.801 22.0701 114.502 19.9831 115.903 18.4938C117.304 17.0045 119.274 16.2598 121.811 16.2598C123.389 16.2598 124.78 16.6028 125.985 17.2886C127.191 17.9745 128.116 18.9592 128.763 20.2428C129.41 21.5263 129.733 23.0304 129.733 24.7548ZM142.156 16.2598C142.764 16.2598 143.269 16.3039 143.67 16.3921L143.332 20.5955C142.97 20.4975 142.529 20.4485 142.01 20.4485C140.579 20.4485 139.462 20.816 138.659 21.5508C137.865 22.2857 137.468 23.3145 137.468 24.6373V33H132.985V16.5685H136.38L137.042 19.3315H137.262C137.772 18.4105 138.458 17.6708 139.32 17.1123C140.192 16.544 141.137 16.2598 142.156 16.2598ZM153.125 29.7225C153.909 29.7225 154.849 29.551 155.947 29.2081V32.5444C154.83 33.0441 153.458 33.2939 151.831 33.2939C150.038 33.2939 148.73 32.8432 147.907 31.9418C147.094 31.0306 146.687 29.6686 146.687 27.856V19.9341H144.542V18.0382L147.011 16.5391L148.304 13.0705H151.17V16.5685H155.77V19.9341H151.17V27.856C151.17 28.4928 151.346 28.9632 151.699 29.2669C152.062 29.5706 152.537 29.7225 153.125 29.7225ZM163.314 33H158.831V10.1311H163.314V33ZM178.015 33L177.148 30.766H177.031C176.276 31.7164 175.497 32.3778 174.694 32.7501C173.9 33.1127 172.862 33.2939 171.578 33.2939C170.001 33.2939 168.756 32.8432 167.845 31.9418C166.944 31.0404 166.493 29.7568 166.493 28.0911C166.493 26.347 167.1 25.0635 168.315 24.2404C169.54 23.4076 171.382 22.9471 173.841 22.8589L176.693 22.7707V22.0505C176.693 20.3848 175.84 19.552 174.135 19.552C172.822 19.552 171.279 19.9488 169.506 20.7425L168.021 17.7148C169.912 16.7252 172.009 16.2304 174.312 16.2304C176.516 16.2304 178.207 16.7105 179.382 17.6708C180.558 18.631 181.146 20.0909 181.146 22.0505V33H178.015ZM176.693 25.3868L174.958 25.4456C173.655 25.4848 172.685 25.72 172.048 26.1511C171.411 26.5822 171.093 27.2387 171.093 28.1205C171.093 29.3845 171.818 30.0165 173.268 30.0165C174.307 30.0165 175.135 29.7176 175.752 29.1199C176.379 28.5222 176.693 27.7286 176.693 26.739V25.3868ZM200.492 33H196.009V23.4027C196.009 22.2171 195.798 21.3304 195.377 20.7425C194.956 20.1448 194.285 19.8459 193.364 19.8459C192.109 19.8459 191.203 20.2673 190.645 21.1099C190.086 21.9428 189.807 23.3292 189.807 25.2692V33H185.324V16.5685H188.749L189.351 18.6702H189.601C190.101 17.8765 190.787 17.2788 191.659 16.8771C192.54 16.4656 193.54 16.2598 194.657 16.2598C196.568 16.2598 198.018 16.7791 199.007 17.8177C199.997 18.8465 200.492 20.3359 200.492 22.2857V33ZM209.858 33.2939C207.928 33.2939 206.409 32.5444 205.302 31.0453C204.204 29.5461 203.656 27.4689 203.656 24.8136C203.656 22.1191 204.214 20.0223 205.331 18.5232C206.458 17.0143 208.006 16.2598 209.976 16.2598C212.043 16.2598 213.62 17.0633 214.708 18.6702H214.855C214.63 17.4454 214.517 16.3529 214.517 15.3927V10.1311H219.014V33H215.575L214.708 30.8689H214.517C213.498 32.4856 211.945 33.2939 209.858 33.2939ZM211.431 29.7225C212.577 29.7225 213.415 29.3894 213.944 28.7231C214.483 28.0568 214.777 26.9251 214.826 25.328V24.843C214.826 23.0793 214.551 21.8154 214.003 21.0511C213.464 20.2869 212.582 19.9047 211.357 19.9047C210.358 19.9047 209.579 20.331 209.02 21.1834C208.472 22.026 208.197 23.2557 208.197 24.8724C208.197 26.4891 208.476 27.7041 209.035 28.5173C209.593 29.3208 210.392 29.7225 211.431 29.7225ZM223.281 31.8536C223.281 30.8934 223.673 30.4133 224.456 30.4133C225.26 30.4133 225.662 30.8934 225.662 31.8536C225.662 32.8138 225.26 33.2939 224.456 33.2939C223.673 33.2939 223.281 32.8138 223.281 31.8536ZM242.759 17.0241V18.0382L239.452 18.2439C240.334 19.3413 240.775 20.5465 240.775 21.8595C240.775 23.3978 240.26 24.6471 239.231 25.6073C238.212 26.5577 236.841 27.0329 235.116 27.0329C234.391 27.0329 233.882 27.0035 233.588 26.9447C233.009 27.2485 232.569 27.6061 232.265 28.0176C231.961 28.4292 231.809 28.8652 231.809 29.3257C231.809 29.8352 232 30.2075 232.382 30.4427C232.774 30.6778 233.426 30.7954 234.337 30.7954H237.13C238.864 30.7954 240.192 31.1481 241.113 31.8536C242.034 32.5493 242.494 33.583 242.494 34.9547C242.494 36.64 241.808 37.9383 240.436 38.8495C239.075 39.7705 237.13 40.2311 234.602 40.2311C232.593 40.2311 231.035 39.844 229.928 39.07C228.831 38.2959 228.282 37.2181 228.282 35.8366C228.282 34.7392 228.62 33.8279 229.296 33.1029C229.982 32.3778 230.908 31.883 232.074 31.6185C231.594 31.4127 231.207 31.1236 230.913 30.7513C230.629 30.3692 230.486 29.9332 230.486 29.4433C230.486 28.3753 231.167 27.4346 232.529 26.6214C231.599 26.2393 230.873 25.6416 230.354 24.8283C229.835 24.0053 229.575 23.0646 229.575 22.0064C229.575 20.4093 230.08 19.1307 231.089 18.1705C232.108 17.2004 233.48 16.7154 235.204 16.7154C236.253 16.7154 237.066 16.8183 237.644 17.0241H242.759ZM229.825 35.7043C229.825 37.8991 231.456 38.9965 234.719 38.9965C238.913 38.9965 241.01 37.659 241.01 34.9841C241.01 34.0239 240.681 33.3282 240.025 32.8971C239.368 32.466 238.305 32.2504 236.836 32.2504H234.22C231.29 32.2504 229.825 33.4017 229.825 35.7043ZM231.045 22.0064C231.045 23.241 231.417 24.2012 232.162 24.8871C232.916 25.5632 233.921 25.9012 235.175 25.9012C236.507 25.9012 237.526 25.5632 238.232 24.8871C238.947 24.211 239.305 23.2312 239.305 21.9477C239.305 20.5857 238.937 19.5667 238.203 18.8906C237.477 18.2048 236.458 17.8618 235.145 17.8618C233.872 17.8618 232.867 18.2292 232.133 18.9641C231.407 19.6892 231.045 20.7033 231.045 22.0064ZM258.812 24.99C258.812 27.5963 258.18 29.6343 256.916 31.1041C255.652 32.564 253.908 33.2939 251.684 33.2939C250.283 33.2939 249.048 32.9559 247.98 32.2798C246.912 31.6038 246.094 30.6337 245.526 29.3698C244.958 28.1058 244.673 26.6459 244.673 24.99C244.673 22.3837 245.305 20.3555 246.569 18.9053C247.833 17.4454 249.568 16.7154 251.772 16.7154C253.967 16.7154 255.687 17.4552 256.931 18.9347C258.185 20.4044 258.812 22.4229 258.812 24.99ZM246.202 24.99C246.202 27.1848 246.682 28.8995 247.642 30.134C248.612 31.3588 249.979 31.9712 251.743 31.9712C253.506 31.9712 254.868 31.3588 255.829 30.134C256.799 28.8995 257.284 27.1848 257.284 24.99C257.284 22.7854 256.794 21.0756 255.814 19.8606C254.844 18.6457 253.477 18.0382 251.713 18.0382C249.95 18.0382 248.588 18.6457 247.628 19.8606C246.677 21.0658 246.202 22.7756 246.202 24.99ZM266.283 33L260.11 17.0241H261.609L265.739 27.8854C266.287 29.2767 266.699 30.4917 266.973 31.5303H267.061C267.463 30.1977 267.875 28.9729 268.296 27.856L272.426 17.0241H273.925L267.752 33H266.283Z" fill="black"/>
<defs>
<clipPath id="clip0">
<rect width="86.0825" height="50" fill="white"/>
</clipPath>
</defs>
</svg>
