<svg width="430" height="147" viewBox="0 0 430 147" fill="none" xmlns="http://www.w3.org/2000/svg">
<path d="M7.75688 14.8828L0.392753 13.6099V7.5393H15.2192C16.5938 7.5393 18.7212 7.47402 21.6014 7.34347C25.398 7.08237 28.8346 6.95182 31.9112 6.95182C38.7189 6.95182 44.0866 7.8004 48.0141 9.49756C52.0071 11.1294 54.8218 13.512 56.4583 16.6452C58.1602 19.7131 59.0112 23.6297 59.0112 28.3948C59.0112 36.6195 56.4256 43.0164 51.2543 47.5857C46.1485 52.155 39.0462 54.4396 29.9474 54.4396C26.3472 54.4396 23.7616 54.3417 22.1906 54.1459V73.4347L35.3478 74.4139V80.2886H0V74.4139L7.75688 73.4347V14.8828ZM22.0924 47.8794C23.5979 48.2058 26.1508 48.369 29.7511 48.369C34.1368 48.369 37.6389 46.8677 40.2572 43.865C42.941 40.7971 44.2829 35.7382 44.2829 28.6885C44.2829 23.2054 43.0719 19.2236 40.65 16.7431C38.2934 14.1974 34.6605 12.9245 29.7511 12.9245C27.9182 12.9245 26.0199 13.0551 24.0561 13.3162C23.1397 13.4467 22.4851 13.512 22.0924 13.512V47.8794ZM65.4065 53.1667C65.4065 47.0309 66.6175 41.8088 69.0395 37.5007C71.5269 33.1925 74.8326 29.9614 78.9565 27.8073C83.0804 25.5879 87.5643 24.4782 92.4083 24.4782C100.656 24.4782 107.006 27.024 111.457 32.1155C115.973 37.1417 118.232 43.9956 118.232 52.6772C118.232 58.8783 116.988 64.1656 114.501 68.5391C112.079 72.8473 108.806 76.0784 104.682 78.2325C100.623 80.3213 96.1394 81.3657 91.23 81.3657C83.0477 81.3657 76.6982 78.8526 72.1815 73.8264C67.6648 68.7349 65.4065 61.8484 65.4065 53.1667ZM92.0155 75.0013C99.4124 75.0013 103.111 67.8863 103.111 53.6563C103.111 46.2149 102.227 40.5686 100.46 36.7174C98.6923 32.8008 95.8122 30.8426 91.8192 30.8426C84.2259 30.8426 80.4293 37.9576 80.4293 52.1876C80.4293 59.629 81.3457 65.308 83.1786 69.2245C85.0769 73.0757 88.0225 75.0013 92.0155 75.0013ZM127.158 74.5118L133.638 73.7285V35.1508L127.354 33.3883V26.6323L142.573 24.5762H142.868L145.323 26.5344V28.6885L145.028 36.6195H145.323C145.781 35.314 146.861 33.7147 148.563 31.8217C150.265 29.8635 152.392 28.1663 154.945 26.7302C157.563 25.2289 160.378 24.4782 163.389 24.4782C164.829 24.4782 166.073 24.6741 167.12 25.0657V39.7527C165.157 38.3819 162.767 37.6965 159.953 37.6965C155.174 37.6965 151.018 38.9694 147.483 41.5151V73.6306L158.873 74.5118V80.2886H127.158V74.5118ZM189.871 81.1699C185.747 81.1699 182.703 80.2234 180.739 78.3304C178.776 76.4374 177.794 73.4347 177.794 69.3224V33.3883H171.412V28.2968C171.935 28.101 172.884 27.7746 174.259 27.3177C175.634 26.7955 176.681 26.3712 177.401 26.0449C178.514 25.1963 179.463 23.7276 180.249 21.6388C180.838 20.268 181.918 16.8737 183.489 11.4558H191.344L191.737 25.849H206.759V33.3883H191.835V60.9019C191.835 64.5573 191.933 67.1357 192.129 68.637C192.326 70.1383 192.751 71.1175 193.406 71.5744C194.06 71.966 195.206 72.1619 196.842 72.1619C198.479 72.1619 200.181 71.9987 201.948 71.6723C203.716 71.2806 205.188 70.8237 206.367 70.3015L208.232 75.7846C206.399 77.1554 203.716 78.3957 200.181 79.5053C196.646 80.615 193.209 81.1699 189.871 81.1699ZM219.151 8.71425L211.885 7.44139V2.15408L230.05 0H230.246L232.897 1.86035V73.6306L240.065 74.4139V80.2886H212.278V74.4139L219.151 73.5326V8.71425ZM245.745 65.0142C245.745 59.0742 248.723 54.6028 254.68 51.6001C260.702 48.5975 268.459 47.0635 277.951 46.9982V44.7462C277.951 42.0699 277.656 39.9811 277.067 38.4798C276.543 36.9785 275.529 35.8688 274.023 35.1508C272.583 34.3675 270.455 33.9758 267.641 33.9758C264.433 33.9758 261.553 34.4001 259 35.2487C256.447 36.032 253.796 37.0764 251.047 38.3819L248.003 32.1155C248.985 31.2669 250.621 30.2551 252.912 29.0802C255.269 27.9052 258.051 26.8934 261.258 26.0449C264.466 25.131 267.772 24.6741 271.176 24.6741C276.216 24.6741 280.143 25.3268 282.958 26.6323C285.838 27.9378 287.9 30.0266 289.144 32.8988C290.388 35.7709 291.01 39.6221 291.01 44.4525V74.4139H296.312V79.897C295.003 80.2234 293.137 80.5497 290.715 80.8761C288.293 81.2025 286.166 81.3657 284.333 81.3657C282.107 81.3657 280.602 81.0393 279.816 80.3866C279.096 79.7338 278.736 78.3957 278.736 76.3721V73.7285C276.969 75.6867 274.678 77.4492 271.863 79.0158C269.048 80.5824 265.873 81.3657 262.339 81.3657C259.327 81.3657 256.545 80.7456 253.993 79.5053C251.505 78.1998 249.509 76.3395 248.003 73.9243C246.498 71.4438 245.745 68.4738 245.745 65.0142ZM268.623 73.2389C269.997 73.2389 271.568 72.8473 273.336 72.0639C275.103 71.2154 276.641 70.2036 277.951 69.0286V52.9709C272.059 52.9709 267.641 53.9827 264.695 56.0062C261.815 57.9645 260.375 60.5102 260.375 63.6434C260.375 66.7766 261.095 69.1592 262.535 70.7911C264.04 72.423 266.07 73.2389 268.623 73.2389ZM307.938 35.1508L301.654 33.3883V26.6323L317.953 24.5762H318.248L320.702 26.5344V30.353L320.604 32.7029C322.895 30.5488 325.874 28.6885 329.54 27.1219C333.205 25.5553 336.904 24.772 340.635 24.772C344.628 24.772 347.737 25.5227 349.963 27.024C352.254 28.46 353.89 30.7447 354.872 33.8779C355.854 37.0111 356.345 41.254 356.345 46.6066V73.6306L362.335 74.4139V80.2886H337.002V74.4139L342.304 73.6306V46.6066C342.304 43.2123 342.075 40.5686 341.617 38.6756C341.159 36.7174 340.308 35.3139 339.064 34.4654C337.886 33.5515 336.184 33.0946 333.958 33.0946C330.227 33.0946 326.234 34.6938 321.979 37.8923V73.5326L327.87 74.4139V80.2886H302.243V74.4139L307.938 73.5326V35.1508ZM389.795 81.3657C385.736 81.3657 382.103 80.4192 378.896 78.5262C375.688 76.5679 373.135 73.5653 371.237 69.5182C369.339 65.4711 368.389 60.4123 368.389 54.3417C368.389 48.8586 369.502 43.865 371.728 39.361C374.019 34.7917 377.357 31.169 381.743 28.4927C386.129 25.8164 391.398 24.4782 397.551 24.4782C400.039 24.4782 402.395 24.7393 404.621 25.2615V8.71425L394.999 7.34347V1.95826L415.225 0H415.52L418.269 2.05617V74.3159H423.571V79.897C418.858 80.8761 414.963 81.3657 411.887 81.3657C409.792 81.3657 408.287 81.0067 407.37 80.2886C406.519 79.6359 406.094 78.2977 406.094 76.2742V73.5326C404.392 75.8173 402.068 77.7103 399.122 79.2116C396.177 80.6477 393.067 81.3657 389.795 81.3657ZM394.9 73.2389C397.06 73.2389 398.959 72.8146 400.595 71.966C402.297 71.0522 403.639 69.9751 404.621 68.7349V33.0946C404.163 32.4418 403.181 31.887 401.675 31.4301C400.235 30.9731 398.664 30.7447 396.962 30.7447C392.773 30.7447 389.402 32.5724 386.849 36.2278C384.361 39.8179 383.118 45.5948 383.118 53.5584C383.118 60.2165 384.198 65.1774 386.358 68.4412C388.518 71.6397 391.366 73.2389 394.9 73.2389Z" transform="translate(3.40386 28.5253)" fill="white"/>
<path d="M8.70603 5.12411L4.02572 5.2873L2.74927 12.4023H0L0.5564 2.97003H21.6669L22.0596 12.4023H19.474L18.1976 5.2873L13.5827 5.12411V24.9352L18.1648 25.2615V27.2198H4.51666V25.2615L8.70603 24.9352V5.12411ZM25.788 3.36168L23.3005 2.93739V1.17496L29.3882 0.456927H29.4864L30.3374 1.07704L30.3701 8.35524L30.141 11.1947C30.8174 10.5855 31.7338 10.0198 32.8901 9.49756C34.0684 8.97536 35.3013 8.71425 36.5886 8.71425C37.9632 8.71425 39.0325 8.97536 39.7961 9.49756C40.56 9.99799 41.0944 10.7704 41.3998 11.8148C41.7055 12.8592 41.858 14.2518 41.858 15.9925V24.9678L43.9527 25.2615V27.2198H35.3448V25.2615L37.2432 24.9678V15.9925C37.2432 14.861 37.1669 13.9798 37.014 13.3488C36.8615 12.7178 36.5778 12.25 36.1631 11.9454C35.7703 11.6408 35.1812 11.4885 34.3957 11.4885C33.7195 11.4885 33.0211 11.6516 32.301 11.978C31.6029 12.2826 30.9811 12.6525 30.4356 13.0877V24.9678L32.4319 25.2615V27.2198H23.9551V25.2615L25.788 25.0004V3.36168ZM54.4238 27.5788C51.5436 27.5788 49.3943 26.7411 47.9761 25.0657C46.5796 23.3686 45.8814 21.0622 45.8814 18.1465C45.8814 16.1883 46.2415 14.4911 46.9615 13.0551C47.7032 11.619 48.7397 10.5202 50.0708 9.75866C51.4016 8.99713 52.9399 8.61634 54.6857 8.61634C56.8674 8.61634 58.5477 9.19295 59.726 10.3461C60.9042 11.4776 61.515 13.0986 61.5588 15.2091C61.5588 16.6452 61.4714 17.7114 61.297 18.4076H50.6599C50.747 20.3877 51.2163 21.9325 52.0673 23.0422C52.9183 24.1301 54.1293 24.6741 55.7003 24.6741C56.5512 24.6741 57.4238 24.5327 58.3186 24.2498C59.235 23.9669 59.9551 23.6297 60.4788 23.238L61.297 25.0331C60.7079 25.6641 59.7476 26.2515 58.4168 26.7955C57.1076 27.3177 55.7765 27.5788 54.4238 27.5788ZM56.9767 16.4494C57.0202 15.8401 57.0422 15.3723 57.0422 15.046C57.0422 12.1521 56.0711 10.7052 54.1293 10.7052C53.06 10.7052 52.2309 11.1294 51.6418 11.978C51.0527 12.8266 50.7254 14.3171 50.6599 16.4494H56.9767ZM82.8693 27.5788C79.1597 27.5788 76.3234 26.48 74.3596 24.2824C72.3959 22.0631 71.414 19.0386 71.414 15.2091C71.414 12.6852 71.9265 10.4876 72.9523 8.61634C73.9996 6.72336 75.4286 5.26553 77.2398 4.2429C79.0508 3.22026 81.1019 2.70893 83.393 2.70893C84.3529 2.70893 85.2801 2.7742 86.175 2.90475C87.0695 3.01353 88.1276 3.16585 89.3497 3.36168C90.2662 3.514 90.7679 3.59014 90.8553 3.59014L90.4953 10.3135H87.4841L86.4695 5.64632C86.2293 5.40698 85.8149 5.21116 85.2258 5.05884C84.6367 4.90652 83.8839 4.83037 82.9675 4.83037C81.1127 4.83037 79.618 5.68982 78.4836 7.40875C77.3708 9.10591 76.8144 11.5755 76.8144 14.8175C76.8144 17.9507 77.3488 20.5073 78.4181 22.4873C79.487 24.4674 81.0473 25.4574 83.0984 25.4574C84.0803 25.4574 84.8331 25.3703 85.3567 25.1963C85.902 25.0004 86.3602 24.7285 86.7314 24.3803L88.1715 21.0187L90.9207 21.2798L90.2662 26.3386C89.8079 26.3821 89.3497 26.4691 88.8915 26.5997C88.4549 26.7085 88.1823 26.7737 88.0733 26.7955C87.2004 27.0348 86.3821 27.2198 85.6186 27.3504C84.8766 27.5028 83.9602 27.5788 82.8693 27.5788ZM97.375 6.10324C96.5895 6.10324 95.9676 5.87478 95.5094 5.41785C95.0512 4.96092 94.8221 4.37345 94.8221 3.65542C94.8221 2.82861 95.0839 2.14322 95.6076 1.59925C96.1313 1.05527 96.8294 0.783304 97.7023 0.783304C98.5752 0.783304 99.2406 1.02264 99.6988 1.50133C100.157 1.95826 100.386 2.53487 100.386 3.23113C100.386 4.10148 100.124 4.79774 99.6006 5.31994C99.0769 5.84214 98.3461 6.10324 97.4077 6.10324H97.375ZM95.6403 12.1738L93.3165 11.5537V9.36701L99.306 8.64898H99.3715L100.288 9.30173V25.0004L102.481 25.2615V27.2198H93.3493V25.2615L95.6403 24.9678V12.1738ZM110.325 27.5135C108.951 27.5135 107.936 27.198 107.282 26.5671C106.627 25.9361 106.3 24.9352 106.3 23.5644V11.5864H104.172V9.88921C104.347 9.82394 104.663 9.71515 105.121 9.56283C105.58 9.38878 105.929 9.24733 106.169 9.13854C106.54 8.85567 106.856 8.36611 107.118 7.66985C107.314 7.21292 107.674 6.08147 108.198 4.27553H110.816L110.947 9.07327H115.955V11.5864H110.98V20.7576C110.98 21.976 111.013 22.8355 111.078 23.3359C111.144 23.8364 111.285 24.1627 111.504 24.3151C111.722 24.4456 112.104 24.5109 112.649 24.5109C113.194 24.5109 113.762 24.4565 114.351 24.3477C114.94 24.2171 115.431 24.0648 115.824 23.8908L116.446 25.7185C115.835 26.1754 114.94 26.5888 113.762 26.9587C112.584 27.3285 111.438 27.5135 110.325 27.5135ZM121.1 35.3466C120.707 35.3466 120.282 35.3139 119.823 35.2487C119.387 35.1834 119.071 35.1074 118.874 35.0202V31.528C119.027 31.6151 119.333 31.7019 119.791 31.7891C120.249 31.8762 120.664 31.9196 121.034 31.9196C122.125 31.9196 123.02 31.5606 123.718 30.8426C124.438 30.1246 125.104 28.917 125.715 27.2198H123.947L117.794 11.3905L116.321 10.9663V9.07327H125.322V10.9663L122.933 11.3579L125.846 20.3985L127.024 24.2498L128.039 20.3985L130.722 11.3579L128.66 10.9663V9.07327H135.763V10.9663L134.159 11.3579C132.959 15.0133 131.77 18.5382 130.591 21.9325C129.413 25.3268 128.726 27.2306 128.529 27.6441C127.831 29.4718 127.166 30.9297 126.533 32.0175C125.9 33.1054 125.148 33.9324 124.275 34.498C123.402 35.0636 122.344 35.3466 121.1 35.3466ZM144.716 18.1792C144.716 16.1339 145.119 14.3932 145.927 12.9572C146.756 11.5211 147.858 10.4441 149.232 9.72602C150.607 8.98622 152.102 8.61634 153.716 8.61634C156.466 8.61634 158.582 9.46492 160.066 11.1621C161.571 12.8375 162.324 15.1221 162.324 18.016C162.324 20.083 161.91 21.8455 161.081 23.3033C160.273 24.7393 159.182 25.8164 157.808 26.5344C156.455 27.2306 154.96 27.5788 153.324 27.5788C150.596 27.5788 148.48 26.7411 146.974 25.0657C145.469 23.3686 144.716 21.0731 144.716 18.1792ZM153.586 25.4574C156.051 25.4574 157.284 23.0857 157.284 18.3424C157.284 15.8619 156.989 13.9798 156.4 12.6961C155.811 11.3905 154.851 10.7378 153.52 10.7378C150.989 10.7378 149.723 13.1095 149.723 17.8528C149.723 20.3333 150.029 22.2262 150.64 23.5318C151.273 24.8155 152.254 25.4574 153.586 25.4574ZM167.558 11.619H164.808V9.7913L167.558 9.13854V7.70249C167.558 6.2882 167.929 4.99356 168.671 3.81861C169.434 2.64365 170.449 1.71893 171.714 1.04441C172.98 0.348146 174.322 0 175.74 0C176.482 0 177.18 0.108781 177.835 0.326377V4.504C177.617 4.2864 177.18 4.06884 176.526 3.85124C175.893 3.63365 175.228 3.52487 174.529 3.52487C173.678 3.52487 173.067 3.74246 172.696 4.17762C172.347 4.59104 172.173 5.30907 172.173 6.33171V9.10591H176.329V11.619H172.173V25.0004L175.609 25.2615V27.2198H164.972V25.2615L167.558 24.9678V11.619Z" fill="white"/>
<path d="M10.6371 24.9025C7.08046 24.9025 4.41847 23.7929 2.65108 21.5735C0.883695 19.3541 0 16.3297 0 12.5002C0 9.99799 0.458212 7.8004 1.37464 5.90742C2.31289 4.01443 3.62207 2.55661 5.30217 1.53397C6.98227 0.511334 8.91331 0 11.0953 0C14.6955 0 17.3902 1.06617 19.1794 3.19849C20.9905 5.30907 21.896 8.26819 21.896 12.0759C21.896 14.5999 21.4159 16.841 20.4559 18.7993C19.5176 20.7358 18.1976 22.2371 16.4956 23.3033C14.7937 24.3695 12.8408 24.9025 10.6371 24.9025ZM10.9644 1.9909C9.17514 1.9909 7.77871 2.87211 6.77499 4.63455C5.77128 6.39698 5.26944 9.00799 5.26944 12.4676C5.26944 15.8837 5.74948 18.4838 6.70953 20.268C7.69142 22.0304 9.08788 22.9116 10.8989 22.9116C12.6663 22.9116 14.0518 21.9869 15.0555 20.1374C16.0593 18.2662 16.5611 15.579 16.5611 12.0759C16.5611 8.68162 16.0811 6.15765 15.121 4.504C14.1609 2.82861 12.7754 1.9909 10.9644 1.9909ZM24.3029 22.6179L26.463 22.3568V9.49756L24.3683 8.91008V6.65808L29.4414 5.97269H29.5396L30.3578 6.62544V7.34347L30.2596 9.98712H30.3578C30.5106 9.55196 30.8706 9.01886 31.4379 8.38788C32.0051 7.73512 32.7144 7.16942 33.5653 6.69072C34.4382 6.19029 35.3763 5.94005 36.3801 5.94005C36.8602 5.94005 37.2746 6.00533 37.6238 6.13588V11.0315C36.9692 10.5746 36.1729 10.3461 35.2345 10.3461C33.6416 10.3461 32.2562 10.7704 31.0779 11.619V22.3242L34.8745 22.6179V24.5435H24.3029V22.6179ZM47.9565 24.9025C45.0763 24.9025 42.9273 24.0648 41.5088 22.3894C40.1125 20.6923 39.4141 18.3859 39.4141 15.4702C39.4141 13.512 39.7741 11.8148 40.4942 10.3788C41.2361 8.94272 42.2727 7.84391 43.6035 7.08237C44.9346 6.32084 46.4729 5.94005 48.2183 5.94005C50.4004 5.94005 52.0804 6.51666 53.2586 7.66985C54.4369 8.8013 55.048 10.4223 55.0915 12.5329C55.0915 13.9689 55.0044 15.0351 54.8297 15.7314H44.1926C44.28 17.7114 44.749 19.2562 45.6 20.3659C46.4509 21.4538 47.6619 21.9978 49.2329 21.9978C50.0839 21.9978 50.9568 21.8564 51.8513 21.5735C52.7677 21.2906 53.4878 20.9534 54.0114 20.5617L54.8297 22.3568C54.2405 22.9878 53.2806 23.5753 51.9495 24.1192C50.6403 24.6414 49.3095 24.9025 47.9565 24.9025ZM50.5094 13.7731C50.5532 13.1638 50.5748 12.696 50.5748 12.3697C50.5748 9.47579 49.6041 8.02886 47.6619 8.02886C46.593 8.02886 45.7636 8.45315 45.1745 9.30173C44.5853 10.1503 44.258 11.6408 44.1926 13.7731H50.5094ZM65.6242 33.3557C62.7001 33.3557 60.5838 32.8988 59.2746 31.9849C57.9655 31.071 57.3109 29.8308 57.3109 28.2642C57.3109 27.3722 57.6054 26.5236 58.1946 25.7185C58.8053 24.9352 59.5365 24.3477 60.3874 23.956C59.3836 23.3686 58.8819 22.4329 58.8819 21.1492C58.8819 20.4094 59.1218 19.7131 59.6019 19.0604C60.0818 18.3859 60.7036 17.8637 61.4675 17.4938C60.2673 17.0369 59.3728 16.3406 58.7837 15.405C58.1946 14.4693 57.9 13.3597 57.9 12.0759C57.9 10.8357 58.26 9.75866 58.9801 8.8448C59.7217 7.90918 60.7036 7.19115 61.9257 6.69072C63.1695 6.19029 64.5114 5.94005 65.9515 5.94005C68.5043 5.94005 70.4027 6.42962 71.6464 7.40875C71.9298 7.03887 72.41 6.69072 73.0865 6.36434C73.7627 6.03797 74.4611 5.87478 75.1812 5.87478H76.3267V9.43228H72.9555C73.2828 10.1285 73.4465 10.8683 73.4465 11.6516C73.4681 13.6317 72.77 15.22 71.3518 16.4167C69.9333 17.5917 67.9915 18.1792 65.526 18.1792C64.5002 18.1792 63.6385 18.103 62.9403 17.9507C62.722 18.2336 62.5476 18.5382 62.4167 18.8646C62.3074 19.1692 62.253 19.4412 62.253 19.6805C62.253 20.3985 62.5037 20.8881 63.0058 21.1492C63.5295 21.4103 64.4567 21.5409 65.7878 21.5409H69.2899C73.7411 21.5409 75.9667 23.151 75.9667 26.3712C75.9667 27.7201 75.4865 28.9277 74.5266 29.994C73.5663 31.0603 72.2898 31.887 70.6972 32.4745C69.1043 33.0619 67.4131 33.3557 65.6242 33.3557ZM65.8533 16.1556C67.8825 16.1556 68.8971 14.774 68.8971 12.0107C68.8971 10.5964 68.6353 9.56283 68.1116 8.91008C67.6095 8.23556 66.8351 7.89831 65.7878 7.89831C64.7621 7.89831 63.9658 8.23556 63.3986 8.91008C62.853 9.56283 62.5803 10.5528 62.5803 11.8801C62.5803 14.7305 63.6712 16.1556 65.8533 16.1556ZM66.1151 31.1037C67.4897 31.1037 68.6788 30.7665 69.6826 30.0919C70.6861 29.4392 71.1882 28.5253 71.1882 27.3504C71.1882 26.4146 70.9371 25.7403 70.4354 25.3268C69.9552 24.9133 69.0823 24.7067 67.817 24.7067H64.2495C63.7039 24.7067 63.2022 24.6741 62.744 24.6088C62.1548 25.3921 61.8603 26.3278 61.8603 27.4156C61.8603 28.6125 62.1876 29.5263 62.8422 30.1572C63.4967 30.7881 64.5876 31.1037 66.1151 31.1037ZM78.0636 15.5029C78.0636 13.4576 78.4672 11.7169 79.2746 10.2809C80.1037 8.84481 81.2057 7.76776 82.5803 7.04973C83.9549 6.30994 85.4494 5.94005 87.0642 5.94005C89.8135 5.94005 91.9298 6.78863 93.4137 8.48579C94.9193 10.1612 95.6721 12.4458 95.6721 15.3397C95.6721 17.4067 95.2574 19.1692 94.4283 20.627C93.6209 22.0631 92.53 23.1401 91.1554 23.8581C89.8024 24.5543 88.3079 24.9025 86.6715 24.9025C83.9438 24.9025 81.8275 24.0648 80.322 22.3894C78.8164 20.6923 78.0636 18.3968 78.0636 15.5029ZM86.9333 22.7811C89.3988 22.7811 90.6317 20.4094 90.6317 15.6661C90.6317 13.1856 90.3372 11.3035 89.748 10.0198C89.1589 8.71425 88.1986 8.0615 86.8679 8.0615C84.3366 8.0615 83.0712 10.4332 83.0712 15.1765C83.0712 17.657 83.3766 19.55 83.9877 20.8555C84.6203 22.1392 85.6022 22.7811 86.9333 22.7811ZM100.48 9.49756L98.3853 8.91008V6.65808L103.818 5.97269H103.917L104.735 6.62544V7.89831L104.702 8.68162C105.466 7.96359 106.459 7.34347 107.68 6.82127C108.903 6.29907 110.135 6.03797 111.379 6.03797C112.71 6.03797 113.747 6.2882 114.488 6.78863C115.252 7.26733 115.797 8.02886 116.125 9.07327C116.452 10.1177 116.616 11.532 116.616 13.3162V22.3242L118.612 22.5853V24.5435H110.168V22.5853L111.935 22.3242V13.3162C111.935 12.1847 111.859 11.3035 111.706 10.6725C111.554 10.0198 111.27 9.55197 110.855 9.26909C110.463 8.96449 109.895 8.81217 109.153 8.81217C107.91 8.81217 106.579 9.34524 105.16 10.4114V22.2915L107.124 22.5853V24.5435H98.5817V22.5853L100.48 22.2915V9.49756Z" transform="translate(311.388 113.644)" fill="white"/>
</svg>
