<svg width="276" height="50" viewBox="0 0 276 50" fill="none" xmlns="http://www.w3.org/2000/svg">
<g clip-path="url(#clip0)">
<path d="M25.7485 20.6186H0V38.9175H33.988V50H52.2695V30.4124H86V12.3711H43.7725V0H25.7485V20.6186Z" fill="white"/>
<path d="M39.6907 18.0412H86.0825V24.7423C86.0825 24.7423 51.524 24.7423 45.6073 24.7423C39.6907 24.7423 39.6907 19.1578 39.6907 18.0412Z" fill="#418FDE"/>
<path d="M46.3918 26.2887V50H39.6907C39.6907 50 39.6907 38.1219 39.6907 32.2053C39.6907 26.2887 45.2752 26.2887 46.3918 26.2887Z" fill="#418FDE"/>
<path d="M31.4433 24.7423L31.4433 2.92912e-07L38.1443 0C38.1443 0 38.1443 12.909 38.1443 18.8256C38.1443 24.7423 32.5599 24.7423 31.4433 24.7423Z" fill="#418FDE"/>
<path d="M38.1443 32.9896L0 32.9897L5.85818e-07 26.2887C5.85818e-07 26.2887 26.3183 26.2887 32.2313 26.2887C38.1443 26.2887 38.1443 31.8731 38.1443 32.9896Z" fill="#418FDE"/>
<path d="M39.6907 0H42.268V13.9175H86.0825V16.4948H39.6907V0Z" fill="#FFB81C"/>
<path d="M86.0825 26.8041V29.3814L50.5155 29.3814V50H47.9381V26.8041L86.0825 26.8041Z" fill="#FFB81C"/>
<path d="M27.3196 0H29.8969V24.7423H0V22.1649H27.3196V0Z" fill="#FFB81C"/>
<path d="M0 34.5361H38.1443V50H35.567V37.1134H0V34.5361Z" fill="#FFB81C"/>
<path d="M52.0619 30.4124H86.0825C86.0825 41.2303 77.3128 50 66.4949 50H52.0619V30.4124Z" fill="#046A38"/>
<path d="M43.8144 12.3711V1.84759e-06L86.0825 0V12.3711L43.8144 12.3711Z" fill="#046A38"/>
<path d="M4.95696e-07 50L0 38.6598H34.0206V50H4.95696e-07Z" fill="#046A38"/>
<path d="M4.95696e-07 20.6186C4.95696e-07 9.23125 9.23124 2.78149e-06 20.6186 2.78149e-06H25.7732V20.6186H4.95696e-07Z" fill="#046A38"/>
</g>
<path d="M103.236 15.6621H104.73C106.127 15.6621 107.172 15.3887 107.865 14.8418C108.559 14.2852 108.905 13.4795 108.905 12.4248C108.905 11.3604 108.612 10.5742 108.026 10.0664C107.45 9.55859 106.542 9.30469 105.302 9.30469H103.236V15.6621ZM113.49 12.2637C113.49 14.5684 112.768 16.3311 111.322 17.5518C109.887 18.7725 107.841 19.3828 105.185 19.3828H103.236V27H98.6953V5.58398H105.536C108.134 5.58398 110.106 6.14551 111.454 7.26855C112.812 8.38184 113.49 10.0469 113.49 12.2637ZM120.291 18.7822C120.291 20.4033 120.555 21.6289 121.082 22.459C121.619 23.2891 122.488 23.7041 123.69 23.7041C124.881 23.7041 125.736 23.2939 126.253 22.4736C126.78 21.6436 127.044 20.4131 127.044 18.7822C127.044 17.1611 126.78 15.9453 126.253 15.1348C125.726 14.3242 124.862 13.9189 123.66 13.9189C122.469 13.9189 121.61 14.3242 121.082 15.1348C120.555 15.9355 120.291 17.1514 120.291 18.7822ZM131.614 18.7822C131.614 21.4482 130.911 23.5332 129.505 25.0371C128.099 26.541 126.141 27.293 123.631 27.293C122.059 27.293 120.672 26.9512 119.471 26.2676C118.27 25.5742 117.347 24.583 116.702 23.2939C116.058 22.0049 115.736 20.501 115.736 18.7822C115.736 16.1064 116.434 14.0264 117.83 12.542C119.227 11.0576 121.19 10.3154 123.719 10.3154C125.291 10.3154 126.678 10.6572 127.879 11.3408C129.08 12.0244 130.003 13.0059 130.648 14.2852C131.292 15.5645 131.614 17.0635 131.614 18.7822ZM143.996 10.3154C144.602 10.3154 145.105 10.3594 145.505 10.4473L145.168 14.6367C144.807 14.5391 144.368 14.4902 143.85 14.4902C142.424 14.4902 141.311 14.8564 140.51 15.5889C139.719 16.3213 139.324 17.3467 139.324 18.665V27H134.856V10.623H138.24L138.899 13.377H139.119C139.626 12.459 140.31 11.7217 141.169 11.165C142.038 10.5986 142.981 10.3154 143.996 10.3154ZM154.928 23.7334C155.71 23.7334 156.647 23.5625 157.741 23.2207V26.5459C156.628 27.0439 155.26 27.293 153.639 27.293C151.852 27.293 150.548 26.8438 149.728 25.9453C148.918 25.0371 148.512 23.6797 148.512 21.873V13.9775H146.374V12.0879L148.835 10.5938L150.124 7.13672H152.98V10.623H157.565V13.9775H152.98V21.873C152.98 22.5078 153.156 22.9766 153.507 23.2793C153.869 23.582 154.342 23.7334 154.928 23.7334ZM165.084 27H160.616V4.20703H165.084V27ZM179.736 27L178.872 24.7734H178.755C178.003 25.7207 177.227 26.3799 176.426 26.751C175.635 27.1123 174.6 27.293 173.32 27.293C171.748 27.293 170.508 26.8438 169.6 25.9453C168.701 25.0469 168.252 23.7676 168.252 22.1074C168.252 20.3691 168.857 19.0898 170.068 18.2695C171.289 17.4395 173.125 16.9805 175.576 16.8926L178.418 16.8047V16.0869C178.418 14.4268 177.568 13.5967 175.869 13.5967C174.561 13.5967 173.022 13.9922 171.255 14.7832L169.775 11.7656C171.66 10.7793 173.75 10.2861 176.045 10.2861C178.242 10.2861 179.927 10.7646 181.099 11.7217C182.271 12.6787 182.856 14.1338 182.856 16.0869V27H179.736ZM178.418 19.4121L176.689 19.4707C175.391 19.5098 174.424 19.7441 173.789 20.1738C173.154 20.6035 172.837 21.2578 172.837 22.1367C172.837 23.3965 173.56 24.0264 175.005 24.0264C176.04 24.0264 176.865 23.7285 177.48 23.1328C178.105 22.5371 178.418 21.7461 178.418 20.7598V19.4121ZM202.138 27H197.67V17.4346C197.67 16.2529 197.46 15.3691 197.04 14.7832C196.62 14.1875 195.951 13.8896 195.033 13.8896C193.783 13.8896 192.88 14.3096 192.323 15.1494C191.767 15.9795 191.488 17.3613 191.488 19.2949V27H187.021V10.623H190.434L191.034 12.7178H191.283C191.781 11.9268 192.465 11.3311 193.334 10.9307C194.213 10.5205 195.209 10.3154 196.322 10.3154C198.227 10.3154 199.672 10.833 200.658 11.8682C201.645 12.8936 202.138 14.3779 202.138 16.3213V27ZM211.473 27.293C209.549 27.293 208.036 26.5459 206.932 25.0518C205.838 23.5576 205.291 21.4873 205.291 18.8408C205.291 16.1553 205.848 14.0654 206.961 12.5713C208.084 11.0674 209.627 10.3154 211.59 10.3154C213.651 10.3154 215.223 11.1162 216.307 12.7178H216.454C216.229 11.4971 216.117 10.4082 216.117 9.45117V4.20703H220.599V27H217.171L216.307 24.876H216.117C215.101 26.4873 213.553 27.293 211.473 27.293ZM213.04 23.7334C214.183 23.7334 215.018 23.4014 215.545 22.7373C216.082 22.0732 216.375 20.9453 216.424 19.3535V18.8701C216.424 17.1123 216.151 15.8525 215.604 15.0908C215.067 14.3291 214.188 13.9482 212.967 13.9482C211.971 13.9482 211.195 14.373 210.638 15.2227C210.091 16.0625 209.818 17.2881 209.818 18.8994C209.818 20.5107 210.096 21.7217 210.653 22.5322C211.209 23.333 212.005 23.7334 213.04 23.7334ZM224.851 25.8574C224.851 24.9004 225.242 24.4219 226.023 24.4219C226.824 24.4219 227.224 24.9004 227.224 25.8574C227.224 26.8145 226.824 27.293 226.023 27.293C225.242 27.293 224.851 26.8145 224.851 25.8574ZM244.264 11.0771V12.0879L240.969 12.293C241.847 13.3867 242.287 14.5879 242.287 15.8965C242.287 17.4297 241.774 18.6748 240.749 19.6318C239.733 20.5791 238.366 21.0527 236.647 21.0527C235.925 21.0527 235.417 21.0234 235.124 20.9648C234.548 21.2676 234.108 21.624 233.805 22.0342C233.503 22.4443 233.351 22.8789 233.351 23.3379C233.351 23.8457 233.542 24.2168 233.923 24.4512C234.313 24.6855 234.963 24.8027 235.871 24.8027H238.654C240.383 24.8027 241.706 25.1543 242.624 25.8574C243.542 26.5508 244.001 27.5811 244.001 28.9482C244.001 30.6279 243.317 31.9219 241.95 32.8301C240.593 33.748 238.654 34.207 236.135 34.207C234.133 34.207 232.58 33.8213 231.476 33.0498C230.383 32.2783 229.836 31.2041 229.836 29.8271C229.836 28.7334 230.173 27.8252 230.846 27.1025C231.53 26.3799 232.453 25.8867 233.615 25.623C233.137 25.418 232.751 25.1299 232.458 24.7588C232.175 24.3779 232.033 23.9434 232.033 23.4551C232.033 22.3906 232.712 21.4531 234.069 20.6426C233.141 20.2617 232.419 19.666 231.901 18.8555C231.384 18.0352 231.125 17.0977 231.125 16.043C231.125 14.4512 231.628 13.1768 232.634 12.2197C233.649 11.2529 235.016 10.7695 236.735 10.7695C237.78 10.7695 238.591 10.8721 239.167 11.0771H244.264ZM231.374 29.6953C231.374 31.8828 233 32.9766 236.252 32.9766C240.431 32.9766 242.521 31.6436 242.521 28.9775C242.521 28.0205 242.194 27.3271 241.54 26.8975C240.886 26.4678 239.826 26.2529 238.361 26.2529H235.754C232.834 26.2529 231.374 27.4004 231.374 29.6953ZM232.59 16.043C232.59 17.2734 232.961 18.2305 233.703 18.9141C234.455 19.5879 235.456 19.9248 236.706 19.9248C238.034 19.9248 239.05 19.5879 239.753 18.9141C240.466 18.2402 240.822 17.2637 240.822 15.9844C240.822 14.627 240.456 13.6113 239.723 12.9375C239.001 12.2539 237.985 11.9121 236.677 11.9121C235.407 11.9121 234.406 12.2783 233.674 13.0107C232.951 13.7334 232.59 14.7441 232.59 16.043ZM260.265 19.0166C260.265 21.6143 259.635 23.6455 258.375 25.1104C257.115 26.5654 255.377 27.293 253.16 27.293C251.764 27.293 250.533 26.9561 249.469 26.2822C248.404 25.6084 247.589 24.6416 247.022 23.3818C246.456 22.1221 246.173 20.667 246.173 19.0166C246.173 16.4189 246.803 14.3975 248.062 12.9521C249.322 11.4971 251.051 10.7695 253.248 10.7695C255.436 10.7695 257.149 11.5068 258.39 12.9814C259.64 14.4463 260.265 16.458 260.265 19.0166ZM247.696 19.0166C247.696 21.2041 248.175 22.9131 249.132 24.1436C250.099 25.3643 251.461 25.9746 253.219 25.9746C254.977 25.9746 256.334 25.3643 257.291 24.1436C258.258 22.9131 258.741 21.2041 258.741 19.0166C258.741 16.8193 258.253 15.1152 257.276 13.9043C256.31 12.6934 254.947 12.0879 253.189 12.0879C251.432 12.0879 250.074 12.6934 249.117 13.9043C248.17 15.1055 247.696 16.8096 247.696 19.0166ZM267.71 27L261.558 11.0771H263.052L267.168 21.9023C267.715 23.2891 268.125 24.5 268.399 25.5352H268.487C268.887 24.207 269.297 22.9863 269.717 21.873L273.833 11.0771H275.327L269.175 27H267.71Z" fill="#212529"/>
<path d="M104.369 35.8945C104.369 36.7227 104.088 37.3574 103.525 37.7988C102.963 38.2402 102.166 38.4609 101.135 38.4609H99.8105V42H99.2129V33.4336H101.311C103.35 33.4336 104.369 34.2539 104.369 35.8945ZM99.8105 37.9453H100.988C101.953 37.9453 102.65 37.7871 103.08 37.4707C103.51 37.1504 103.725 36.6328 103.725 35.918C103.725 35.2578 103.521 34.7695 103.115 34.4531C102.709 34.1328 102.08 33.9727 101.229 33.9727H99.8105V37.9453ZM111.354 38.8066C111.354 39.8457 111.102 40.6582 110.598 41.2441C110.094 41.8262 109.398 42.1172 108.512 42.1172C107.953 42.1172 107.461 41.9824 107.035 41.7129C106.609 41.4434 106.283 41.0566 106.057 40.5527C105.83 40.0488 105.717 39.4668 105.717 38.8066C105.717 37.7676 105.969 36.959 106.473 36.3809C106.977 35.7988 107.668 35.5078 108.547 35.5078C109.422 35.5078 110.107 35.8027 110.604 36.3926C111.104 36.9785 111.354 37.7832 111.354 38.8066ZM106.326 38.8066C106.326 39.6816 106.518 40.3652 106.9 40.8574C107.287 41.3457 107.832 41.5898 108.535 41.5898C109.238 41.5898 109.781 41.3457 110.164 40.8574C110.551 40.3652 110.744 39.6816 110.744 38.8066C110.744 37.9277 110.549 37.2461 110.158 36.7617C109.771 36.2773 109.227 36.0352 108.523 36.0352C107.82 36.0352 107.277 36.2773 106.895 36.7617C106.516 37.2422 106.326 37.9238 106.326 38.8066ZM115.625 35.5078C115.895 35.5078 116.184 35.5352 116.492 35.5898L116.381 36.1465C116.115 36.0801 115.84 36.0469 115.555 36.0469C115.012 36.0469 114.566 36.2773 114.219 36.7383C113.871 37.1992 113.697 37.7812 113.697 38.4844V42H113.117V35.6309H113.609L113.668 36.7793H113.709C113.971 36.3105 114.25 35.9824 114.547 35.7949C114.844 35.6035 115.203 35.5078 115.625 35.5078ZM119.475 41.6016C119.842 41.6016 120.162 41.5703 120.436 41.5078V41.9766C120.154 42.0703 119.83 42.1172 119.463 42.1172C118.9 42.1172 118.484 41.9668 118.215 41.666C117.949 41.3652 117.816 40.8926 117.816 40.248V36.1348H116.873V35.7949L117.816 35.5312L118.109 34.0898H118.408V35.6309H120.277V36.1348H118.408V40.166C118.408 40.6543 118.494 41.0156 118.666 41.25C118.838 41.4844 119.107 41.6016 119.475 41.6016ZM122.393 42H121.812V32.8828H122.393V42ZM128.398 42L128.252 40.9922H128.205C127.885 41.4023 127.555 41.6934 127.215 41.8652C126.879 42.0332 126.48 42.1172 126.02 42.1172C125.395 42.1172 124.908 41.957 124.561 41.6367C124.213 41.3164 124.039 40.873 124.039 40.3066C124.039 39.6855 124.297 39.2031 124.812 38.8594C125.332 38.5156 126.082 38.334 127.062 38.3145L128.275 38.2793V37.8574C128.275 37.252 128.152 36.7949 127.906 36.4863C127.66 36.1777 127.264 36.0234 126.717 36.0234C126.127 36.0234 125.516 36.1875 124.883 36.5156L124.666 36.0117C125.365 35.6836 126.057 35.5195 126.74 35.5195C127.439 35.5195 127.961 35.7012 128.305 36.0645C128.652 36.4277 128.826 36.9941 128.826 37.7637V42H128.398ZM126.055 41.5898C126.734 41.5898 127.27 41.3965 127.66 41.0098C128.055 40.6191 128.252 40.0781 128.252 39.3867V38.7598L127.139 38.8066C126.244 38.8496 125.605 38.9902 125.223 39.2285C124.844 39.4629 124.654 39.8301 124.654 40.3301C124.654 40.7285 124.775 41.0391 125.018 41.2617C125.264 41.4805 125.609 41.5898 126.055 41.5898ZM135.336 42V37.8691C135.336 37.2285 135.201 36.7637 134.932 36.4746C134.662 36.1816 134.244 36.0352 133.678 36.0352C132.916 36.0352 132.357 36.2285 132.002 36.6152C131.65 36.998 131.475 37.6211 131.475 38.4844V42H130.895V35.6309H131.387L131.498 36.5039H131.533C131.947 35.8398 132.684 35.5078 133.742 35.5078C135.188 35.5078 135.91 36.2832 135.91 37.834V42H135.336ZM140.305 35.5078C140.766 35.5078 141.164 35.5918 141.5 35.7598C141.836 35.9277 142.137 36.2148 142.402 36.6211H142.438C142.414 36.1289 142.402 35.6465 142.402 35.1738V32.8828H142.977V42H142.596L142.449 41.0273H142.402C141.918 41.7539 141.223 42.1172 140.316 42.1172C139.438 42.1172 138.766 41.8438 138.301 41.2969C137.836 40.75 137.604 39.9531 137.604 38.9062C137.604 37.8047 137.834 36.9629 138.295 36.3809C138.756 35.7988 139.426 35.5078 140.305 35.5078ZM140.305 36.0352C139.609 36.0352 139.086 36.2793 138.734 36.7676C138.387 37.2559 138.213 37.9648 138.213 38.8945C138.213 40.6992 138.914 41.6016 140.316 41.6016C141.035 41.6016 141.562 41.3926 141.898 40.9746C142.234 40.5566 142.402 39.8672 142.402 38.9062V38.8066C142.402 37.8223 142.236 37.1152 141.904 36.6855C141.576 36.252 141.043 36.0352 140.305 36.0352ZM145.783 40.6055L145.854 40.7285C145.561 41.7637 145.221 42.7031 144.834 43.5469H144.453C144.754 42.4727 144.969 41.4922 145.098 40.6055H145.783ZM158.164 37.7051C158.164 39.0645 157.824 40.1406 157.145 40.9336C156.465 41.7227 155.527 42.1172 154.332 42.1172C153.141 42.1172 152.205 41.7227 151.525 40.9336C150.846 40.1406 150.506 39.0605 150.506 37.6934C150.506 36.3301 150.848 35.2578 151.531 34.4766C152.219 33.6914 153.156 33.2988 154.344 33.2988C155.539 33.2988 156.475 33.6934 157.15 34.4824C157.826 35.2676 158.164 36.3418 158.164 37.7051ZM151.156 37.7051C151.156 38.9316 151.43 39.8809 151.977 40.5527C152.523 41.2207 153.309 41.5547 154.332 41.5547C155.363 41.5547 156.15 41.2227 156.693 40.5586C157.24 39.8945 157.514 38.9434 157.514 37.7051C157.514 36.4707 157.24 35.5254 156.693 34.8691C156.15 34.209 155.367 33.8789 154.344 33.8789C153.324 33.8789 152.537 34.2109 151.982 34.875C151.432 35.5391 151.156 36.4824 151.156 37.7051ZM162.5 35.5078C162.77 35.5078 163.059 35.5352 163.367 35.5898L163.256 36.1465C162.99 36.0801 162.715 36.0469 162.43 36.0469C161.887 36.0469 161.441 36.2773 161.094 36.7383C160.746 37.1992 160.572 37.7812 160.572 38.4844V42H159.992V35.6309H160.484L160.543 36.7793H160.584C160.846 36.3105 161.125 35.9824 161.422 35.7949C161.719 35.6035 162.078 35.5078 162.5 35.5078ZM167.24 42.1172C166.314 42.1172 165.592 41.832 165.072 41.2617C164.557 40.6914 164.299 39.8926 164.299 38.8652C164.299 37.8496 164.549 37.0371 165.049 36.4277C165.549 35.8145 166.223 35.5078 167.07 35.5078C167.82 35.5078 168.412 35.7695 168.846 36.293C169.279 36.8164 169.496 37.5273 169.496 38.4258V38.8945H164.908C164.916 39.7695 165.119 40.4375 165.518 40.8984C165.92 41.3594 166.494 41.5898 167.24 41.5898C167.604 41.5898 167.922 41.5645 168.195 41.5137C168.473 41.4629 168.822 41.3535 169.244 41.1855V41.7129C168.885 41.8691 168.553 41.9746 168.248 42.0293C167.943 42.0879 167.607 42.1172 167.24 42.1172ZM167.07 36.0234C166.457 36.0234 165.965 36.2266 165.594 36.6328C165.223 37.0352 165.006 37.6172 164.943 38.3789H168.881C168.881 37.6406 168.721 37.0645 168.4 36.6504C168.08 36.2324 167.637 36.0234 167.07 36.0234ZM176.223 35.6309V36.0352L174.904 36.1172C175.256 36.5547 175.432 37.0352 175.432 37.5586C175.432 38.1719 175.227 38.6699 174.816 39.0527C174.41 39.4316 173.863 39.6211 173.176 39.6211C172.887 39.6211 172.684 39.6094 172.566 39.5859C172.336 39.707 172.16 39.8496 172.039 40.0137C171.918 40.1777 171.857 40.3516 171.857 40.5352C171.857 40.7383 171.934 40.8867 172.086 40.9805C172.242 41.0742 172.502 41.1211 172.865 41.1211H173.979C174.67 41.1211 175.199 41.2617 175.566 41.543C175.934 41.8203 176.117 42.2324 176.117 42.7793C176.117 43.4512 175.844 43.9688 175.297 44.332C174.754 44.6992 173.979 44.8828 172.971 44.8828C172.17 44.8828 171.549 44.7285 171.107 44.4199C170.67 44.1113 170.451 43.6816 170.451 43.1309C170.451 42.6934 170.586 42.3301 170.855 42.041C171.129 41.752 171.498 41.5547 171.963 41.4492C171.771 41.3672 171.617 41.252 171.5 41.1035C171.387 40.9512 171.33 40.7773 171.33 40.582C171.33 40.1562 171.602 39.7812 172.145 39.457C171.773 39.3047 171.484 39.0664 171.277 38.7422C171.07 38.4141 170.967 38.0391 170.967 37.6172C170.967 36.9805 171.168 36.4707 171.57 36.0879C171.977 35.7012 172.523 35.5078 173.211 35.5078C173.629 35.5078 173.953 35.5488 174.184 35.6309H176.223ZM171.066 43.0781C171.066 43.9531 171.717 44.3906 173.018 44.3906C174.689 44.3906 175.525 43.8574 175.525 42.791C175.525 42.4082 175.395 42.1309 175.133 41.959C174.871 41.7871 174.447 41.7012 173.861 41.7012H172.818C171.65 41.7012 171.066 42.1602 171.066 43.0781ZM171.553 37.6172C171.553 38.1094 171.701 38.4922 171.998 38.7656C172.299 39.0352 172.699 39.1699 173.199 39.1699C173.73 39.1699 174.137 39.0352 174.418 38.7656C174.703 38.4961 174.846 38.1055 174.846 37.5938C174.846 37.0508 174.699 36.6445 174.406 36.375C174.117 36.1016 173.711 35.9648 173.188 35.9648C172.68 35.9648 172.279 36.1113 171.986 36.4043C171.697 36.6934 171.553 37.0977 171.553 37.6172ZM182.803 38.8066C182.803 39.8457 182.551 40.6582 182.047 41.2441C181.543 41.8262 180.848 42.1172 179.961 42.1172C179.402 42.1172 178.91 41.9824 178.484 41.7129C178.059 41.4434 177.732 41.0566 177.506 40.5527C177.279 40.0488 177.166 39.4668 177.166 38.8066C177.166 37.7676 177.418 36.959 177.922 36.3809C178.426 35.7988 179.117 35.5078 179.996 35.5078C180.871 35.5078 181.557 35.8027 182.053 36.3926C182.553 36.9785 182.803 37.7832 182.803 38.8066ZM177.775 38.8066C177.775 39.6816 177.967 40.3652 178.35 40.8574C178.736 41.3457 179.281 41.5898 179.984 41.5898C180.688 41.5898 181.23 41.3457 181.613 40.8574C182 40.3652 182.193 39.6816 182.193 38.8066C182.193 37.9277 181.998 37.2461 181.607 36.7617C181.221 36.2773 180.676 36.0352 179.973 36.0352C179.27 36.0352 178.727 36.2773 178.344 36.7617C177.965 37.2422 177.775 37.9238 177.775 38.8066ZM189.008 42V37.8691C189.008 37.2285 188.873 36.7637 188.604 36.4746C188.334 36.1816 187.916 36.0352 187.35 36.0352C186.588 36.0352 186.029 36.2285 185.674 36.6152C185.322 36.998 185.146 37.6211 185.146 38.4844V42H184.566V35.6309H185.059L185.17 36.5039H185.205C185.619 35.8398 186.355 35.5078 187.414 35.5078C188.859 35.5078 189.582 36.2832 189.582 37.834V42H189.008Z" fill="#212529"/>
<defs>
<clipPath id="clip0">
<rect width="86.0825" height="50" fill="white"/>
</clipPath>
</defs>
</svg>
