<!-- -->
<svg width="280" height="43" viewBox="0 0 280 43" fill="none" xmlns="http://www.w3.org/2000/svg">
<g clip-path="url(#clip0)">
<path d="M21.7656 17.4062H0V32.6907H28.75V42.25H44V26.2339H72.7656V10.3918H37.0781V0H21.7656V17.4062Z" fill="white"/>
<path d="M33.5499 15.25H72.7641V20.9142C72.7641 20.9142 43.5523 20.9142 38.5511 20.9142C33.5499 20.9142 33.5499 16.1938 33.5499 15.25Z" fill="#418FDE"/>
<path d="M39.2142 22.2214V42.2642H33.5499C33.5499 42.2642 33.5499 32.2238 33.5499 27.2226C33.5499 22.2214 38.2704 22.2214 39.2142 22.2214Z" fill="#418FDE"/>
<path d="M26.5785 20.9142L26.5785 2.47593e-07L32.2428 0C32.2428 0 32.2428 10.9118 32.2428 15.913C32.2428 20.9142 27.5223 20.9142 26.5785 20.9142Z" fill="#418FDE"/>
<path d="M32.2428 27.8856L0 27.8857L4.95182e-07 22.2214C4.95182e-07 22.2214 22.2464 22.2214 27.2446 22.2214C32.2428 22.2214 32.2428 26.9418 32.2428 27.8856Z" fill="#418FDE"/>
<path d="M33.5499 0H35.7285V11.7642H72.7641V13.9428H33.5499V0Z" fill="#FFB81C"/>
<path d="M72.7641 22.6571V24.8356L42.6999 24.8356V42.2642H40.5213V22.6571L72.7641 22.6571Z" fill="#FFB81C"/>
<path d="M23.0928 0H25.2714V20.9142H0V18.7357H23.0928V0Z" fill="#FFB81C"/>
<path d="M0 29.1928H32.2428V42.2642H30.0642V31.3713H0V29.1928Z" fill="#FFB81C"/>
<path d="M72.7567 26.2038C72.4941 35.1182 65.185 42.2641 56.207 42.2641H44.007V26.2038C44.3774 26.2038 72.7567 26.2038 72.7567 26.2038Z" fill="#046A38"/>
<path d="M37.0356 10.4571V1.56174e-06L72.7641 0V10.4571L37.0356 10.4571Z" fill="#046A38"/>
<path d="M4.19004e-07 42.2642L0 32.6785H28.7571V42.2642H4.19004e-07Z" fill="#046A38"/>
<path d="M4.19004e-07 17.4285C4.19004e-07 7.80302 7.80301 2.35114e-06 17.4285 2.35114e-06H21.7856V17.4285H4.19004e-07Z" fill="#046A38"/>
</g>
<path d="M102.31 13.4442C102.31 16.0696 101.446 18.0817 99.7185 19.4804C97.9906 20.8792 95.5314 21.5785 92.3407 21.5785H89.7144V30.9855H85.5849V5.84297H92.859C96.0152 5.84297 98.3765 6.485 99.9431 7.76907C101.521 9.05313 102.31 10.9448 102.31 13.4442ZM89.7144 18.1219H91.9087C94.0282 18.1219 95.5832 17.755 96.5738 17.0212C97.5644 16.2875 98.0597 15.141 98.0597 13.5818C98.0597 12.1372 97.6163 11.0595 96.7293 10.3487C95.8424 9.63784 94.4601 9.28243 92.5826 9.28243H89.7144V18.1219Z" fill="#343A40"/>
<path d="M121.506 21.4409C121.506 24.5479 120.705 26.9728 119.104 28.7154C117.503 30.4581 115.274 31.3294 112.417 31.3294C110.632 31.3294 109.054 30.9281 107.683 30.1256C106.313 29.3231 105.259 28.1708 104.521 26.6689C103.784 25.167 103.416 23.4244 103.416 21.4409C103.416 18.3569 104.21 15.9493 105.8 14.2181C107.39 12.4869 109.63 11.6213 112.521 11.6213C115.286 11.6213 117.474 12.5098 119.087 14.2869C120.7 16.0524 121.506 18.4371 121.506 21.4409ZM107.597 21.4409C107.597 25.832 109.227 28.0275 112.487 28.0275C115.712 28.0275 117.324 25.832 117.324 21.4409C117.324 17.0958 115.7 14.9232 112.452 14.9232C110.747 14.9232 109.509 15.4849 108.737 16.6085C107.977 17.7321 107.597 19.3429 107.597 21.4409Z" fill="#343A40"/>
<path d="M133.004 11.6213C133.822 11.6213 134.495 11.6786 135.025 11.7932L134.628 15.5595C134.052 15.4219 133.453 15.3531 132.831 15.3531C131.207 15.3531 129.888 15.8805 128.874 16.9352C127.872 17.99 127.371 19.3601 127.371 21.0454V30.9855H123.311V11.9652H126.49L127.025 15.3187H127.233C127.866 14.1837 128.69 13.2837 129.704 12.6187C130.729 11.9538 131.829 11.6213 133.004 11.6213Z" fill="#343A40"/>
<path d="M145.676 28.0619C146.666 28.0619 147.657 27.9071 148.647 27.5976V30.6415C148.198 30.8364 147.617 30.9969 146.902 31.123C146.2 31.2606 145.468 31.3294 144.708 31.3294C140.861 31.3294 138.937 29.3116 138.937 25.2759V15.0263H136.328V13.2378L139.127 11.7588L140.509 7.73467H143.015V11.9652H148.457V15.0263H143.015V25.2072C143.015 26.1817 143.257 26.904 143.74 27.374C144.236 27.8326 144.881 28.0619 145.676 28.0619Z" fill="#343A40"/>
<path d="M155.059 30.9855H150.998V4.22642H155.059V17.6059V30.9855Z" fill="#343A40"/>
<path d="M170.793 30.9855L169.981 28.3371H169.843C168.921 29.495 167.994 30.2861 167.061 30.7103C166.128 31.123 164.93 31.3294 163.467 31.3294C161.59 31.3294 160.121 30.825 159.061 29.816C158.013 28.8071 157.489 27.3798 157.489 25.5339C157.489 23.5734 158.22 22.0944 159.683 21.097C161.146 20.0996 163.375 19.555 166.37 19.4633L169.67 19.3601V18.3454C169.67 17.1301 169.382 16.2244 168.806 15.6282C168.242 15.0206 167.361 14.7168 166.163 14.7168C165.184 14.7168 164.245 14.8601 163.346 15.1467C162.448 15.4333 161.584 15.7716 160.755 16.1614L159.441 13.2722C160.478 12.7334 161.613 12.3264 162.845 12.0512C164.078 11.7646 165.241 11.6213 166.335 11.6213C168.766 11.6213 170.597 12.1487 171.83 13.2034C173.074 14.2582 173.696 15.9149 173.696 18.1735V30.9855H170.793ZM164.746 28.2339C166.22 28.2339 167.401 27.8269 168.288 27.0129C169.186 26.1874 169.636 25.0352 169.636 23.5562V21.9053L167.182 22.0085C165.27 22.0772 163.876 22.3983 163.001 22.9715C162.137 23.5333 161.705 24.3989 161.705 25.5683C161.705 26.4167 161.958 27.0759 162.465 27.546C162.972 28.0046 163.732 28.2339 164.746 28.2339Z" fill="#343A40"/>
<path d="M192.938 30.9855H188.86V19.2913C188.86 17.8238 188.561 16.7289 187.962 16.0066C187.374 15.2843 186.435 14.9232 185.145 14.9232C183.429 14.9232 182.173 15.4276 181.379 16.4365C180.584 17.4454 180.186 19.1365 180.186 21.5097V30.9855H176.126V11.9652H179.305L179.875 14.4588H180.083C180.659 13.5531 181.477 12.8537 182.536 12.3608C183.596 11.8678 184.771 11.6213 186.061 11.6213C190.646 11.6213 192.938 13.9429 192.938 18.5862V30.9855Z" fill="#343A40"/>
<path d="M202.286 31.3294C199.902 31.3294 198.042 30.4695 196.705 28.7498C195.369 27.0301 194.701 24.6167 194.701 21.5097C194.701 18.3913 195.375 15.9665 196.723 14.2353C198.082 12.4926 199.96 11.6213 202.355 11.6213C204.867 11.6213 206.779 12.5442 208.092 14.39H208.299C208.103 13.0257 208.005 11.948 208.005 11.1569V4.22642H212.083V30.9855H208.904L208.195 28.4918H208.005C206.704 30.3836 204.797 31.3294 202.286 31.3294ZM203.375 28.0619C205.045 28.0619 206.26 27.5976 207.021 26.6689C207.781 25.7288 208.172 24.2097 208.195 22.1116V21.5441C208.195 19.148 207.804 17.4454 207.021 16.4365C206.237 15.4276 205.011 14.9232 203.34 14.9232C201.912 14.9232 200.812 15.5021 200.04 16.6601C199.268 17.8066 198.883 19.4461 198.883 21.5785C198.883 23.6881 199.257 25.2989 200.006 26.411C200.754 27.5116 201.877 28.0619 203.375 28.0619Z" fill="#343A40"/>
<path d="M214.353 28.8358C214.353 27.9989 214.572 27.3568 215.01 26.9097C215.447 26.4626 216.081 26.239 216.91 26.239C217.751 26.239 218.39 26.474 218.828 26.9441C219.266 27.4027 219.485 28.0333 219.485 28.8358C219.485 29.6498 219.26 30.2976 218.811 30.7791C218.373 31.2492 217.74 31.4842 216.91 31.4842C216.081 31.4842 215.447 31.2492 215.01 30.7791C214.572 30.309 214.353 29.6613 214.353 28.8358Z" fill="#343A40"/>
<path d="M239.287 11.9652V14.1837L236.021 14.7856C236.321 15.1868 236.568 15.6798 236.764 16.2645C236.96 16.8493 237.058 17.4684 237.058 18.1219C237.058 20.0824 236.378 21.6244 235.019 22.7479C233.66 23.8715 231.788 24.4333 229.404 24.4333C228.793 24.4333 228.24 24.3874 227.745 24.2957C226.869 24.8346 226.432 25.4651 226.432 26.1874C226.432 26.6231 226.633 26.9498 227.036 27.1677C227.451 27.3855 228.206 27.4944 229.3 27.4944H232.635C234.742 27.4944 236.344 27.9415 237.438 28.8358C238.532 29.7301 239.079 31.0199 239.079 32.7052C239.079 34.8606 238.187 36.523 236.401 37.6924C234.616 38.8618 232.036 39.4465 228.661 39.4465C226.057 39.4465 224.07 38.988 222.7 38.0708C221.329 37.1536 220.644 35.8466 220.644 34.1498C220.644 32.9804 221.012 31.9944 221.749 31.1918C222.498 30.4008 223.54 29.8504 224.877 29.5409C224.335 29.3116 223.886 28.9447 223.529 28.4403C223.183 27.9243 223.011 27.3855 223.011 26.8237C223.011 26.1129 223.212 25.511 223.615 25.018C224.019 24.525 224.617 24.0377 225.412 23.5562C224.422 23.132 223.615 22.4441 222.993 21.4925C222.383 20.5295 222.078 19.4059 222.078 18.1219C222.078 16.0582 222.728 14.4588 224.03 13.3238C225.343 12.1888 227.209 11.6213 229.628 11.6213C230.17 11.6213 230.734 11.6614 231.321 11.7417C231.92 11.8104 232.37 11.885 232.669 11.9652H239.287ZM224.272 33.9434C224.272 34.8147 224.664 35.4854 225.447 35.9555C226.242 36.4255 227.353 36.6606 228.782 36.6606C230.993 36.6606 232.64 36.3453 233.723 35.7147C234.806 35.0842 235.347 34.2472 235.347 33.2039C235.347 32.3784 235.048 31.788 234.449 31.4326C233.861 31.0886 232.761 30.9167 231.149 30.9167H228.073C226.91 30.9167 225.982 31.1861 225.291 31.7249C224.612 32.2753 224.272 33.0147 224.272 33.9434ZM226.017 18.1219C226.017 19.3142 226.322 20.2314 226.933 20.8734C227.555 21.5155 228.442 21.8365 229.594 21.8365C231.943 21.8365 233.118 20.5868 233.118 18.0875C233.118 16.8493 232.825 15.8977 232.237 15.2327C231.661 14.5563 230.78 14.2181 229.594 14.2181C228.419 14.2181 227.526 14.5505 226.915 15.2155C226.317 15.8805 226.017 16.8493 226.017 18.1219Z" fill="#343A40"/>
<path d="M258.719 21.4409C258.719 24.5479 257.918 26.9728 256.317 28.7154C254.716 30.4581 252.487 31.3294 249.631 31.3294C247.845 31.3294 246.267 30.9281 244.897 30.1256C243.526 29.3231 242.472 28.1708 241.735 26.6689C240.997 25.167 240.629 23.4244 240.629 21.4409C240.629 18.3569 241.424 15.9493 243.013 14.2181C244.603 12.4869 246.843 11.6213 249.734 11.6213C252.499 11.6213 254.687 12.5098 256.3 14.2869C257.913 16.0524 258.719 18.4371 258.719 21.4409ZM244.81 21.4409C244.81 25.832 246.44 28.0275 249.7 28.0275C252.925 28.0275 254.538 25.832 254.538 21.4409C254.538 17.0958 252.914 14.9232 249.665 14.9232C247.96 14.9232 246.722 15.4849 245.95 16.6085C245.19 17.7321 244.81 19.3429 244.81 21.4409Z" fill="#343A40"/>
<path d="M267.283 30.9855L260.026 11.9652H264.311L268.199 23.0231C268.867 24.8804 269.27 26.3823 269.408 27.5288H269.547C269.65 26.7033 270.053 25.2014 270.756 23.0231L274.644 11.9652H278.963L271.672 30.9855H267.283Z" fill="#343A40"/>
<defs>
<clipPath id="clip0">
<rect width="72.7641" height="42.2642" fill="white"/>
</clipPath>
</defs>
</svg>
